<svg width="165" height="206" viewBox="0 0 165 206" fill="none" xmlns="http://www.w3.org/2000/svg">
<rect width="165" height="206" fill="white"/>
<rect x="10" y="10" width="145" height="186" fill="#EBEBEB"/>
<path d="M123.502 20.198H121V19.202H121.498V19.7H123.502V20.198ZM121.498 19.202V18.698H122.002V19.202H121.498ZM122.002 18.698V18.2H122.5V18.698H122.002ZM122.5 18.2V17.702H122.998V18.2H122.5ZM122.998 17.702V16.202H123.502V17.702H122.998ZM121.498 16.202V17.198H121V16.202H121.498ZM122.998 16.202H121.498V15.698H122.998V16.202ZM125.998 20.198H124.498V19.7H125.998V20.198ZM125.998 19.7V17.702H125.5V18.2H125.002V18.698H124.498V19.7H124V16.202H124.498V18.2H125.002V17.702H125.5V17.198H125.998V16.202H126.502V19.7H125.998ZM125.998 16.202H124.498V15.698H125.998V16.202ZM129.502 20.198H127V19.202H127.498V19.7H129.502V20.198ZM127.498 19.202V18.698H128.002V19.202H127.498ZM128.002 18.698V18.2H128.5V18.698H128.002ZM128.5 18.2V17.702H128.998V18.2H128.5ZM128.998 17.702V16.202H129.502V17.702H128.998ZM127.498 16.202V17.198H127V16.202H127.498ZM128.998 16.202H127.498V15.698H128.998V16.202ZM130 19.7V19.202H130.498V19.7H131.998V20.198H130.498V19.7H130ZM130.498 18.2V17.702H131.002V17.198H131.5V17.702H131.998V18.2H132.502V19.7H131.998V18.2H130.498ZM130 16.202V15.698H132.502V16.7H131.998V17.198H131.5V16.7H131.998V16.202H130ZM133 18.2V17.702H135.502V18.2H133ZM137.998 20.198H136.498V19.7H137.998V20.198ZM137.998 19.7V17.702H137.5V18.2H137.002V18.698H136.498V19.7H136V16.202H136.498V18.2H137.002V17.702H137.5V17.198H137.998V16.202H138.502V19.7H137.998ZM137.998 16.202H136.498V15.698H137.998V16.202ZM140.998 19.202V20.198H140.5V19.202H139V17.702H139.498V18.698H140.5V16.7H140.002V17.702H139.498V16.7H140.002V15.698H140.998V18.698H141.502V19.202H140.998ZM142 18.2V17.702H144.502V18.2H142ZM146.998 20.198H145.498V19.7H146.998V20.198ZM146.998 19.7V17.702H146.5V18.2H146.002V18.698H145.498V19.7H145V16.202H145.498V18.2H146.002V17.702H146.5V17.198H146.998V16.202H147.502V19.7H146.998ZM146.998 16.202H145.498V15.698H146.998V16.202ZM148.498 20.198V19.7H149.5V20.198H148.498ZM149.5 19.7V19.202H149.998V19.7H149.5ZM149.998 19.202V18.698H148.498V18.2H149.998V16.202H150.502V19.202H149.998ZM148.498 18.2H148V16.202H148.498V18.2ZM149.998 16.202H148.498V15.698H149.998V16.202Z" fill="#F56E00"/>
<path d="M20.412 178.764V181.408H20.028V181.264H18V181.408H17.612V178.764H18.648C18.696 178.588 18.732 178.408 18.756 178.224H17.192V177.852H20.816V178.224H19.132C19.104 178.412 19.068 178.592 19.02 178.764H20.412ZM18 180.892H20.028V180.176H18V180.892ZM18 179.828H20.028V179.128H18V179.828ZM21.304 179.104H22.724C22.768 178.852 22.8 178.576 22.816 178.276H21.408V177.912H24.592V178.276H23.2C23.18 178.58 23.148 178.856 23.108 179.104H24.708V179.468H23.288C23.568 180.184 24.084 180.736 24.84 181.124L24.604 181.432C23.824 181.008 23.288 180.408 22.992 179.636C22.928 179.86 22.856 180.048 22.768 180.2C22.5 180.676 22.044 181.088 21.404 181.436L21.164 181.124C21.748 180.82 22.164 180.464 22.412 180.048C22.504 179.892 22.58 179.7 22.644 179.468H21.304V179.104ZM25.352 177.856H26.572V180.316H25.352V177.856ZM26.212 179.976V179.252H25.724V179.976H26.212ZM25.724 178.908H26.212V178.196H25.724V178.908ZM26.836 179.208H28.564V180.316H26.836V179.208ZM28.192 179.984V179.544H27.208V179.984H28.192ZM27.304 178.212H26.78V177.856H28.66C28.648 178.356 28.612 178.672 28.548 178.8C28.48 178.98 28.336 179.072 28.112 179.076C28.024 179.076 27.924 179.068 27.812 179.06L27.704 178.728C27.848 178.744 27.968 178.752 28.072 178.752C28.156 178.748 28.208 178.692 28.232 178.584C28.256 178.532 28.268 178.408 28.276 178.212H27.668C27.6 178.632 27.324 178.94 26.844 179.136L26.644 178.824C27.02 178.696 27.24 178.492 27.304 178.212ZM25.56 180.456L25.9 180.544C25.816 180.88 25.712 181.18 25.584 181.436L25.236 181.312C25.36 181.088 25.468 180.8 25.56 180.456ZM26.608 180.524C26.68 180.772 26.744 181.04 26.8 181.332L26.436 181.42C26.384 181.108 26.324 180.836 26.26 180.6L26.608 180.524ZM27.46 180.484C27.564 180.74 27.66 181.02 27.74 181.324L27.372 181.412C27.3 181.092 27.212 180.808 27.104 180.56L27.46 180.484ZM28.284 180.408C28.504 180.712 28.672 180.98 28.792 181.212L28.488 181.424C28.364 181.172 28.196 180.896 27.988 180.592L28.284 180.408ZM29.768 180.428C29.872 180.428 29.956 180.468 30.028 180.552C30.092 180.64 30.128 180.748 30.128 180.884C30.128 181.088 30.068 181.264 29.948 181.416C29.828 181.568 29.668 181.672 29.468 181.728V181.48C29.576 181.44 29.668 181.38 29.74 181.292C29.804 181.2 29.84 181.108 29.84 181.012C29.816 181.02 29.784 181.024 29.744 181.024C29.66 181.024 29.592 180.996 29.536 180.94C29.48 180.884 29.452 180.812 29.452 180.728C29.452 180.636 29.48 180.564 29.54 180.508C29.596 180.452 29.672 180.428 29.768 180.428ZM33.932 177.708L34.304 177.752C34.272 177.86 34.236 177.964 34.204 178.064H34.9V178.384C34.832 178.656 34.708 178.896 34.528 179.1C34.668 179.172 34.804 179.252 34.936 179.332L34.728 179.628C34.6 179.536 34.448 179.44 34.268 179.344C34.036 179.52 33.744 179.664 33.4 179.776L33.228 179.468C33.5 179.388 33.732 179.284 33.924 179.164C33.772 179.088 33.616 179.012 33.448 178.936C33.536 178.752 33.616 178.576 33.688 178.408H33.284V178.064H33.82C33.86 177.94 33.9 177.82 33.932 177.708ZM34.204 178.94C34.36 178.78 34.476 178.604 34.552 178.408H34.064C34.004 178.544 33.94 178.672 33.872 178.796C33.984 178.84 34.096 178.888 34.204 178.94ZM35.164 178.332H35.052V177.992H36.584V178.312C36.492 178.608 36.344 178.86 36.144 179.072C36.324 179.184 36.544 179.284 36.8 179.376L36.628 179.692C36.328 179.588 36.076 179.46 35.872 179.312C35.68 179.448 35.464 179.56 35.22 179.656L35.052 179.344C35.26 179.272 35.444 179.188 35.604 179.084C35.388 178.864 35.24 178.612 35.164 178.332ZM35.864 178.876C36.02 178.716 36.136 178.532 36.212 178.332H35.5C35.548 178.532 35.672 178.712 35.864 178.876ZM34.776 179.656H35.156C35.156 179.768 35.148 179.876 35.132 179.98H36.52C36.512 180.644 36.452 181.04 36.332 181.168C36.216 181.296 36.016 181.364 35.728 181.364C35.584 181.364 35.416 181.356 35.216 181.348L35.12 181.012L35.644 181.032C35.852 181.028 35.984 180.988 36.04 180.916C36.088 180.84 36.12 180.64 36.132 180.316H35.048C35.012 180.42 34.968 180.512 34.916 180.6C34.72 180.928 34.256 181.204 33.524 181.42L33.272 181.116C33.912 180.94 34.332 180.728 34.532 180.48C34.572 180.428 34.604 180.372 34.632 180.316H33.464V179.98H34.744C34.76 179.876 34.772 179.768 34.776 179.656ZM38.624 177.732H39.008V178.156C39.004 178.276 39 178.392 38.992 178.508H40.516C40.5 179.212 40.476 179.78 40.436 180.216C40.396 180.644 40.328 180.944 40.232 181.116C40.136 181.28 39.984 181.368 39.772 181.384H39.216L39.112 181.016C39.28 181.024 39.436 181.028 39.584 181.028C39.796 181.028 39.936 180.896 40 180.636C40.068 180.36 40.112 179.772 40.132 178.876H38.96C38.896 179.432 38.78 179.9 38.608 180.276C38.368 180.768 37.98 181.148 37.444 181.412L37.24 181.092C37.768 180.804 38.124 180.44 38.316 179.996C38.44 179.684 38.528 179.308 38.576 178.876H37.452V178.508H38.608C38.616 178.388 38.62 178.272 38.624 178.156V177.732ZM41.664 181.368H41.3L41.216 181.004C41.324 181.02 41.428 181.028 41.532 181.028C41.628 181.028 41.68 180.976 41.68 180.876V180.02C41.528 180.076 41.376 180.132 41.22 180.18L41.124 179.796C41.312 179.756 41.496 179.704 41.68 179.64V178.788H41.2V178.424H41.68V177.724H42.056V178.424H42.456V178.788H42.056V179.492C42.2 179.424 42.344 179.352 42.48 179.28V179.668C42.34 179.74 42.2 179.804 42.056 179.868V180.976C42.056 181.236 41.924 181.368 41.664 181.368ZM44.548 179.648V181.416H44.184V181.176H43.052V181.416H42.692V179.648H44.548ZM43.052 180.82H44.184V179.996H43.052V180.82ZM42.572 179.352L42.504 179.016C42.712 178.952 43 178.516 43.376 177.708L43.744 177.836C43.52 178.292 43.288 178.676 43.052 178.988C43.444 178.964 43.824 178.92 44.192 178.864C44.092 178.676 43.988 178.496 43.88 178.328L44.208 178.168C44.424 178.516 44.636 178.9 44.836 179.316L44.492 179.484C44.444 179.38 44.4 179.276 44.352 179.18C43.816 179.256 43.224 179.312 42.572 179.352ZM45.268 179.556H47.012C47.056 179.364 47.084 179.156 47.096 178.932V177.728H47.476V178.932C47.468 179.156 47.444 179.364 47.404 179.556H48.752V179.928H47.3C47.276 179.992 47.248 180.056 47.22 180.12C47.82 180.46 48.324 180.8 48.74 181.14L48.468 181.408C48.128 181.096 47.66 180.764 47.064 180.408C47.032 180.456 47 180.5 46.968 180.544C46.66 180.92 46.16 181.208 45.472 181.412L45.268 181.092C45.964 180.88 46.44 180.612 46.688 180.284C46.764 180.172 46.832 180.056 46.888 179.928H45.268V179.556ZM45.62 178.56C45.948 178.704 46.252 178.876 46.528 179.076L46.32 179.392C46.028 179.168 45.728 178.988 45.42 178.856L45.62 178.56ZM46.06 177.92C46.34 178.044 46.6 178.192 46.836 178.364L46.632 178.668C46.384 178.476 46.124 178.324 45.86 178.216L46.06 177.92ZM49.472 178.424H50.732C50.764 178.356 50.792 178.288 50.82 178.22C50.444 178.24 50.036 178.252 49.604 178.252L49.496 177.94C50.624 177.94 51.576 177.864 52.344 177.716L52.52 178.016C52.14 178.096 51.696 178.156 51.192 178.196C51.164 178.276 51.136 178.352 51.108 178.424H52.544V178.748H50.956C50.916 178.816 50.88 178.884 50.84 178.948H52.776V179.284H50.616C50.56 179.352 50.508 179.42 50.456 179.484H52.396V181.416H52.036V181.264H50.304V181.416H49.944V180C49.76 180.16 49.564 180.308 49.356 180.452L49.152 180.128C49.544 179.864 49.876 179.58 50.148 179.284H49.256V178.948H50.42C50.468 178.88 50.516 178.812 50.556 178.748H49.472V178.424ZM50.304 180.276V180.464H52.036V180.276H50.304ZM52.036 179.988V179.792H50.304V179.988H52.036ZM50.304 180.752V180.956H52.036V180.752H50.304ZM53.184 178.64H53.664V177.768H54.052V178.64H54.772V177.732H55.144V178.64H55.868V177.732H56.24V178.64H56.812V179.004H56.24V180.264H54.772V179.004H54.052V180.876H56.676V181.264H53.664V179.004H53.184V178.64ZM55.144 179.004V179.896H55.868V179.004H55.144ZM57.6 177.852H60.416V179.508H59.704C59.96 179.776 60.348 179.992 60.868 180.152L60.704 180.488C60.352 180.352 60.056 180.196 59.816 180.02V181.42H59.432V179.892H59.652C59.508 179.768 59.392 179.64 59.296 179.508H58.704C58.596 179.644 58.472 179.772 58.328 179.888H58.632C58.632 180.208 58.584 180.484 58.488 180.708C58.372 180.996 58.1 181.232 57.672 181.424L57.42 181.12C57.772 180.976 58.004 180.796 58.116 180.584C58.196 180.42 58.24 180.208 58.248 179.952C57.992 180.14 57.688 180.308 57.328 180.452L57.124 180.12C57.644 179.956 58.032 179.752 58.288 179.508H57.6V177.852ZM60.052 179.176V178.832H59.184V179.176H60.052ZM58.816 179.176V178.832H57.964V179.176H58.816ZM57.964 178.52H58.816V178.188H57.964V178.52ZM59.184 178.188V178.52H60.052V178.188H59.184ZM61.768 180.428C61.872 180.428 61.956 180.468 62.028 180.552C62.092 180.64 62.128 180.748 62.128 180.884C62.128 181.088 62.068 181.264 61.948 181.416C61.828 181.568 61.668 181.672 61.468 181.728V181.48C61.576 181.44 61.668 181.38 61.74 181.292C61.804 181.2 61.84 181.108 61.84 181.012C61.816 181.02 61.784 181.024 61.744 181.024C61.66 181.024 61.592 180.996 61.536 180.94C61.48 180.884 61.452 180.812 61.452 180.728C61.452 180.636 61.48 180.564 61.54 180.508C61.596 180.452 61.672 180.428 61.768 180.428ZM68.496 178.168V181.348H68.108V181.12H65.892V181.348H65.508V178.168H68.496ZM65.892 180.748H68.108V178.54H65.892V180.748ZM69.268 178.704H70.584V179.004C70.392 179.892 69.988 180.564 69.376 181.02L69.136 180.708C69.656 180.324 70.012 179.776 70.208 179.072H69.268V178.704ZM72.332 178.328L72.64 178.556C72.336 178.932 72.016 179.248 71.688 179.508C71.996 179.996 72.392 180.4 72.876 180.72L72.636 181.068C71.988 180.544 71.516 179.964 71.224 179.332V180.972C71.224 181.252 71.092 181.396 70.832 181.396H70.304L70.22 181.024C70.388 181.04 70.548 181.048 70.7 181.048C70.792 181.048 70.84 180.988 70.84 180.876V177.712H71.224V178.54C71.304 178.78 71.404 179.004 71.516 179.216C71.816 178.952 72.088 178.656 72.332 178.328ZM74.36 179.444L74.276 179.124C74.308 179.112 74.336 179.1 74.352 179.092C74.492 179.008 74.668 178.788 74.884 178.436H74.252V178.096H75.32C75.272 177.968 75.22 177.848 75.164 177.736L75.552 177.672C75.604 177.8 75.656 177.94 75.708 178.096H76.732V178.436H75.276C75.116 178.716 74.976 178.932 74.848 179.084C75.248 179.056 75.652 179.02 76.052 178.976C75.976 178.876 75.9 178.776 75.82 178.676L76.128 178.488C76.404 178.816 76.616 179.104 76.76 179.352L76.444 179.572C76.388 179.476 76.328 179.376 76.264 179.28C75.68 179.348 75.044 179.404 74.36 179.444ZM73.56 177.756C73.8 177.924 74.008 178.096 74.176 178.268L73.904 178.54C73.756 178.38 73.548 178.204 73.284 178.02L73.56 177.756ZM73.464 178.712C73.712 178.904 73.924 179.1 74.092 179.292L73.82 179.564C73.672 179.38 73.464 179.184 73.192 178.976L73.464 178.712ZM73.788 179.792L74.124 179.92C73.972 180.432 73.8 180.912 73.612 181.36L73.264 181.204C73.464 180.744 73.64 180.272 73.788 179.792ZM75.144 179.58H75.528V181.332H75.144V179.58ZM74.492 179.58H74.86C74.844 180.108 74.792 180.492 74.704 180.74C74.608 180.996 74.444 181.216 74.22 181.408L73.976 181.108C74.16 180.956 74.288 180.776 74.364 180.568C74.436 180.368 74.476 180.04 74.492 179.58ZM76.452 181.372H76.276C76.004 181.372 75.872 181.252 75.872 181.02V179.58H76.232V180.948C76.232 180.992 76.252 181.02 76.292 181.028H76.436C76.488 181.02 76.516 180.964 76.524 180.868C76.532 180.764 76.54 180.612 76.54 180.42L76.872 180.544C76.872 180.92 76.844 181.152 76.792 181.236C76.74 181.316 76.628 181.36 76.452 181.372ZM80.02 177.692C80.204 177.832 80.36 177.972 80.488 178.116L80.304 178.3H80.784V178.664H79.592C79.62 179.136 79.668 179.504 79.736 179.764C79.752 179.832 79.772 179.9 79.792 179.964C79.96 179.668 80.1 179.332 80.212 178.952L80.56 179.1C80.4 179.612 80.2 180.052 79.952 180.412C79.996 180.508 80.04 180.588 80.084 180.656C80.204 180.832 80.3 180.924 80.364 180.924C80.416 180.924 80.468 180.728 80.52 180.336L80.864 180.52C80.764 181.072 80.616 181.352 80.424 181.352C80.248 181.352 80.064 181.232 79.872 180.996C79.808 180.916 79.752 180.828 79.7 180.732C79.432 181.032 79.12 181.26 78.768 181.416L78.552 181.096C78.936 180.924 79.26 180.676 79.524 180.348C79.468 180.204 79.42 180.048 79.376 179.88C79.288 179.556 79.232 179.152 79.204 178.664H77.916V179.248H78.896C78.888 179.972 78.852 180.428 78.788 180.62C78.724 180.788 78.588 180.872 78.38 180.876C78.284 180.876 78.172 180.868 78.048 180.856L77.932 180.512C78.092 180.52 78.224 180.528 78.336 180.528C78.408 180.524 78.452 180.48 78.476 180.392C78.5 180.288 78.512 180.024 78.52 179.608H77.916V179.632C77.9 180.372 77.736 180.964 77.432 181.412L77.144 181.156C77.392 180.792 77.524 180.284 77.536 179.632V178.3H79.184C79.176 178.112 79.176 177.916 79.176 177.712H79.56C79.56 177.92 79.568 178.116 79.576 178.3H80.192C80.084 178.18 79.948 178.052 79.78 177.924L80.02 177.692ZM81.508 177.784C81.784 177.984 82.02 178.18 82.212 178.38L81.936 178.648C81.768 178.464 81.536 178.264 81.236 178.048L81.508 177.784ZM81.436 178.764C81.692 178.956 81.912 179.144 82.088 179.336L81.816 179.608C81.664 179.424 81.444 179.232 81.164 179.024L81.436 178.764ZM81.792 179.852L82.14 179.988C81.972 180.492 81.788 180.964 81.584 181.408L81.2 181.24C81.428 180.788 81.624 180.324 81.792 179.852ZM82.264 177.94H84.832V178.308H84.54V180.972C84.54 181.256 84.404 181.4 84.136 181.4H83.468L83.388 181.036C83.604 181.052 83.808 181.06 84.004 181.06C84.108 181.06 84.164 180.996 84.164 180.876V178.308H82.264V177.94ZM82.424 178.828H83.736V180.372H82.424V178.828ZM83.384 180.028V179.168H82.776V180.028H83.384Z" fill="#1C1E22"/>
<g clip-path="url(#clip0_1313_1190)">
<path d="M18.9999 185C18.212 185 17.5713 185.643 17.5713 186.433C17.5713 186.726 17.6592 187.008 17.8237 187.246C17.8319 187.26 17.8402 187.273 17.85 187.287L18.8928 188.665C18.9211 188.697 18.9591 188.714 18.9999 188.714C19.0401 188.714 19.0784 188.697 19.1115 188.659L20.1494 187.287C20.1596 187.273 20.1684 187.258 20.1732 187.249C20.3397 187.01 20.4288 186.725 20.4284 186.433C20.4284 185.643 19.7876 185 18.9999 185ZM18.9999 186.945C18.8647 186.945 18.7351 186.891 18.6394 186.795C18.5437 186.699 18.4898 186.569 18.4895 186.433C18.4931 186.3 18.5485 186.173 18.6438 186.079C18.7391 185.986 18.8668 185.934 18.9998 185.934C19.1328 185.934 19.2605 185.986 19.3558 186.079C19.4511 186.173 19.5065 186.3 19.51 186.433C19.5097 186.569 19.4558 186.699 19.3602 186.795C19.2646 186.891 19.135 186.945 18.9999 186.945Z" fill="#1C1E22"/>
</g>
<path d="M22.381 185.588C22.588 185.738 22.765 185.885 22.909 186.035L22.702 186.236C22.576 186.098 22.402 185.948 22.177 185.786L22.381 185.588ZM22.327 186.323C22.519 186.467 22.684 186.608 22.816 186.752L22.612 186.956C22.498 186.818 22.333 186.674 22.123 186.518L22.327 186.323ZM22.594 187.139L22.855 187.241C22.729 187.619 22.591 187.973 22.438 188.306L22.15 188.18C22.321 187.841 22.468 187.493 22.594 187.139ZM22.948 185.705H24.874V185.981H24.655V187.979C24.655 188.192 24.553 188.3 24.352 188.3H23.851L23.791 188.027C23.953 188.039 24.106 188.045 24.253 188.045C24.331 188.045 24.373 187.997 24.373 187.907V185.981H22.948V185.705ZM23.068 186.371H24.052V187.529H23.068V186.371ZM23.788 187.271V186.626H23.332V187.271H23.788ZM25.156 185.792H26.383C26.395 185.702 26.407 185.609 26.416 185.516L26.707 185.555C26.698 185.639 26.689 185.717 26.677 185.792H27.844V186.059H26.632C26.614 186.146 26.596 186.23 26.578 186.311H27.697V187.961C27.697 188.177 27.595 188.288 27.397 188.288H27.112L27.037 188.012L27.304 188.018C27.379 188.018 27.418 187.976 27.418 187.898V186.578H25.588V188.306H25.309V186.311H26.287C26.305 186.227 26.323 186.143 26.338 186.059H25.156V185.792ZM26.2 186.632C26.26 186.734 26.314 186.851 26.365 186.986H26.638C26.698 186.869 26.752 186.746 26.8 186.62L27.058 186.716C27.013 186.812 26.965 186.902 26.911 186.986H27.205V187.235H26.638V187.487H27.286V187.736H26.638V188.261H26.362V187.736H25.717V187.487H26.362V187.235H25.804V186.986H26.092C26.05 186.893 26.002 186.806 25.945 186.725L26.2 186.632ZM28.75 186.692C28.813 186.692 28.867 186.713 28.909 186.761C28.954 186.803 28.978 186.854 28.978 186.92C28.978 186.98 28.954 187.034 28.909 187.079C28.867 187.124 28.813 187.148 28.75 187.148C28.684 187.148 28.633 187.124 28.591 187.079C28.543 187.034 28.522 186.98 28.522 186.92C28.522 186.854 28.543 186.803 28.591 186.761C28.633 186.713 28.684 186.692 28.75 186.692ZM32.02 187.157V188.3H31.747V188.186H30.958V188.3H30.685V187.157H32.02ZM30.958 187.928H31.747V187.415H30.958V187.928ZM31.015 185.513L31.288 185.567C31.264 185.639 31.234 185.708 31.204 185.777H32.053V185.984C31.945 186.215 31.789 186.422 31.582 186.605C31.813 186.743 32.083 186.851 32.392 186.926L32.227 187.166C31.885 187.076 31.597 186.947 31.357 186.782C31.117 186.947 30.829 187.088 30.493 187.208L30.319 186.977C30.64 186.872 30.913 186.749 31.138 186.605C31.03 186.506 30.937 186.398 30.856 186.284C30.76 186.383 30.655 186.473 30.544 186.557L30.373 186.335C30.691 186.11 30.904 185.837 31.015 185.513ZM31.018 186.089C31.111 186.221 31.225 186.341 31.357 186.449C31.513 186.32 31.642 186.179 31.738 186.029H31.06C31.042 186.053 31.03 186.071 31.018 186.089ZM29.89 185.585C30.097 185.735 30.274 185.882 30.418 186.032L30.211 186.236C30.088 186.095 29.914 185.945 29.686 185.783L29.89 185.585ZM29.836 186.32C30.028 186.464 30.193 186.605 30.325 186.749L30.121 186.956C30.007 186.818 29.842 186.674 29.632 186.518L29.836 186.32ZM30.1 187.139L30.358 187.241C30.235 187.619 30.097 187.973 29.947 188.303L29.662 188.177C29.83 187.841 29.977 187.493 30.1 187.139ZM32.734 185.645H33.757V185.864C33.661 186.122 33.55 186.395 33.421 186.683C33.619 186.956 33.724 187.196 33.742 187.4C33.742 187.538 33.709 187.64 33.649 187.7C33.556 187.778 33.394 187.817 33.166 187.82L33.076 187.535C33.136 187.544 33.187 187.55 33.226 187.55C33.319 187.544 33.382 187.532 33.415 187.511C33.445 187.487 33.46 187.451 33.46 187.4C33.46 187.199 33.352 186.974 33.139 186.725C33.28 186.425 33.391 186.152 33.472 185.906H33.007V188.318H32.734V185.645ZM35.272 185.684V188.3H34.996V188.075H34.159V188.294H33.883V185.684H35.272ZM34.159 187.802H34.996V187.007H34.159V187.802ZM34.159 186.743H34.996V185.96H34.159V186.743Z" fill="#1C1E22"/>
<defs>
<clipPath id="clip0_1313_1190">
<rect width="4" height="4" fill="white" transform="translate(17 185)"/>
</clipPath>
</defs>
</svg>
