<svg width="50" height="50" viewBox="0 0 50 50" fill="none" xmlns="http://www.w3.org/2000/svg">
<circle cx="25" cy="25" r="25" fill="#2C2C2E"/>
<path d="M18.4826 14.9495V14.104C18.4826 13.4948 18.9829 13 19.6032 13C20.2217 13 20.7239 13.4948 20.7239 14.104V14.9495H27.7448V14.104C27.7448 13.4948 28.2469 13 28.8654 13C29.4857 13 29.986 13.4948 29.986 14.104V14.9495H31.4445C33.7208 14.9495 35.5725 16.7754 35.5725 19.0185V21.5292C35.6017 21.673 35.6017 21.8212 35.5725 21.9649V31.3803C35.5725 33.6289 33.7171 35.4548 31.4426 35.4548L16.882 35.4363C14.7885 35.2425 13.1436 33.4997 13.1436 31.3858V19.0166C13.1436 16.7754 14.9952 14.9495 17.2752 14.9495H18.4826ZM18.4826 16.6111H17.2752C15.9239 16.6092 14.8272 17.6892 14.8272 19.0185V20.6431C14.8506 20.6424 14.874 20.6424 14.8974 20.6431H33.8888V19.0185C33.8888 17.6892 32.7922 16.6074 31.4426 16.6074H29.9842V17.8831C29.9842 18.4923 29.4839 18.9908 28.8636 18.9908C28.5686 18.9927 28.285 18.8776 28.0749 18.6706C27.8648 18.4636 27.7454 18.1817 27.7429 17.8868V16.6074H20.7239V17.8831C20.7239 18.4923 20.2217 18.9908 19.6032 18.9908C19.3083 18.9927 19.0247 18.8776 18.8146 18.6706C18.6044 18.4636 18.4851 18.1817 18.4826 17.8868V16.6074V16.6111ZM33.8906 22.8529H14.9011L14.8309 22.8511V31.3858C14.8309 32.7151 15.9294 33.7951 17.2771 33.7951H31.4426C32.7922 33.7951 33.8888 32.7132 33.8888 31.3858V22.8529H33.8906ZM24.8999 31.0074H23.8291C23.6829 31.0084 23.5379 30.9805 23.4025 30.9255C23.2671 30.8704 23.1438 30.7892 23.0397 30.6866C22.9357 30.5839 22.8529 30.4617 22.796 30.327C22.7392 30.1923 22.7094 30.0477 22.7085 29.9015C22.7085 29.2923 23.2088 28.7975 23.8291 28.7975H24.8999C25.5183 28.7975 26.0205 29.2923 26.0205 29.9015C26.0198 30.0478 25.9902 30.1925 25.9334 30.3273C25.8767 30.4621 25.7939 30.5844 25.6897 30.6871C25.5856 30.7898 25.4623 30.871 25.3267 30.926C25.1912 30.9809 25.0461 31.0086 24.8999 31.0074ZM19.8968 27.5348H18.826C18.6798 27.5357 18.5349 27.5079 18.3994 27.4529C18.264 27.3978 18.1407 27.3166 18.0367 27.2139C17.9326 27.1113 17.8498 26.9891 17.793 26.8544C17.7361 26.7197 17.7064 26.5751 17.7054 26.4289C17.7054 25.8197 18.2057 25.3249 18.826 25.3249H19.8968C20.5152 25.3249 21.0174 25.8197 21.0174 26.4289C21.0174 27.04 20.5152 27.5348 19.8968 27.5348ZM24.8999 27.5348H23.8291C23.6829 27.5357 23.5379 27.5079 23.4025 27.4529C23.2671 27.3978 23.1438 27.3166 23.0397 27.2139C22.9357 27.1113 22.8529 26.9891 22.796 26.8544C22.7392 26.7197 22.7094 26.5751 22.7085 26.4289C22.7085 25.8197 23.2088 25.3249 23.8291 25.3249H24.8999C25.5183 25.3249 26.0205 25.8197 26.0205 26.4289C26.0205 27.04 25.5183 27.5348 24.8999 27.5348ZM29.89 27.5348H28.8192C28.6731 27.5357 28.5281 27.5079 28.3927 27.4529C28.2572 27.3978 28.134 27.3166 28.0299 27.2139C27.9258 27.1113 27.843 26.9891 27.7862 26.8544C27.7294 26.7197 27.6996 26.5751 27.6986 26.4289C27.6986 25.8197 28.2008 25.3249 28.8192 25.3249H29.89C30.5103 25.3249 31.0125 25.8197 31.0125 26.4289C31.0125 27.04 30.5103 27.5348 29.89 27.5348ZM19.8968 31.0055H18.826C18.5311 31.0075 18.2474 30.8924 18.0373 30.6854C17.8272 30.4784 17.7078 30.1965 17.7054 29.9015C17.7054 29.2923 18.2057 28.7975 18.826 28.7975H19.8968C20.5152 28.7975 21.0174 29.2923 21.0174 29.9015C21.0167 30.0478 20.9871 30.1925 20.9303 30.3273C20.8736 30.4621 20.7908 30.5844 20.6867 30.6871C20.5826 30.7898 20.4592 30.871 20.3236 30.926C20.1881 30.9809 20.043 31.0086 19.8968 31.0074V31.0055ZM29.89 31.0055H28.8192C28.5243 31.0075 28.2407 30.8924 28.0306 30.6854C27.8204 30.4784 27.7011 30.1965 27.6986 29.9015C27.6986 29.2923 28.2008 28.7975 28.8192 28.7975H29.89C30.5103 28.7975 31.0125 29.2923 31.0125 29.9015C31.0125 30.5126 30.5103 31.0074 29.89 31.0074V31.0055Z" fill="#FFC300"/>
</svg>
