<svg width="20" height="20" viewBox="0 0 20 20" fill="none" xmlns="http://www.w3.org/2000/svg">
<path d="M5.20588 5H7.2549L11.4608 16H9.53501L8.53361 13.2423H3.92717L2.92577 16H1L5.20588 5ZM4.46639 11.7633H7.9944L6.26891 6.94118H6.20728L4.46639 11.7633Z" fill="white"/>
<path d="M15.7692 7C16.9077 7 17.7385 7.31376 18.2923 7.9578C18.7538 8.51927 19 9.29541 19 10.2862V15.7688H17.8462V14.3321C17.5385 14.7945 17.1231 15.1743 16.6308 15.4716C16.0462 15.8183 15.3846 16 14.6462 16C13.8462 16 13.2154 15.7853 12.7385 15.356C12.2462 14.9101 12 14.3321 12 13.6385C12 12.6642 12.3538 11.9376 13.0923 11.4422C13.7385 10.9798 14.6615 10.7321 15.8615 10.7156L17.7692 10.6826V10.2367C17.7692 8.8 17.0769 8.08991 15.6923 8.08991C15.1077 8.08991 14.6308 8.2055 14.2615 8.46972C13.8462 8.73394 13.5846 9.14679 13.4615 9.69174L12.2462 9.59266C12.4154 8.70092 12.8308 8.02385 13.4769 7.5945C14.0615 7.19817 14.8154 7 15.7692 7ZM17.7692 11.6734L15.9385 11.7064C14.1538 11.7394 13.2615 12.367 13.2615 13.6055C13.2615 14.0018 13.4 14.3156 13.7077 14.5798C14.0154 14.8275 14.4154 14.9596 14.9077 14.9596C15.6615 14.9596 16.3231 14.6954 16.9077 14.167C17.4769 13.655 17.7692 13.0606 17.7692 12.4V11.6734Z" fill="white"/>
<rect x="12" y="2" width="7" height="3" rx="1.5" fill="#C700AD"/>
</svg>
