<svg width="26" height="26" viewBox="0 0 26 26" fill="none" xmlns="http://www.w3.org/2000/svg">
<path d="M13 2.90039C7.42203 2.90039 2.90039 7.42204 2.90039 13C2.90039 18.4037 7.14393 22.8165 12.4805 23.0869L13 23.0996H13.001C14.7131 23.1022 16.3956 22.6672 17.8896 21.8389L18.1865 21.668L18.1904 21.666L18.7139 21.3584L19.04 21.1699L19.4033 21.2686L21.9688 21.9678L21.2695 19.4062L21.1699 19.04L21.3623 18.7129C21.5047 18.4711 21.6199 18.2728 21.71 18.1162L21.9062 17.7666C22.6429 16.3928 23.0498 14.8679 23.0957 13.3125L23.0996 13.001V13C23.0996 7.42204 18.578 2.90039 13 2.90039Z" stroke="black" stroke-width="1.8"/>
</svg>
