<svg width="40" height="40" viewBox="0 0 40 40" fill="none" xmlns="http://www.w3.org/2000/svg">
<path d="M20 0C31.0457 0 40 8.9543 40 20C40 31.0457 31.0457 40 20 40C8.9543 40 0 31.0457 0 20C2.57703e-07 8.95431 8.95431 2.5772e-07 20 0ZM16.7568 20.4629C13.6929 20.4631 11.2005 22.6921 11.2002 25.4307C11.2002 28.1701 13.6927 30.3992 16.7568 30.3994H23.2422C26.3065 30.3994 28.7998 28.1708 28.7998 25.4307C28.7995 22.6919 26.3057 20.4629 23.2422 20.4629H16.7568ZM20 10.3994C17.5491 10.3995 15.5557 12.4075 15.5557 14.875C15.5557 17.3425 17.5491 19.3496 20 19.3496C22.4503 19.3496 24.4443 17.3425 24.4443 14.875C24.4443 12.4074 22.4504 10.3994 20 10.3994Z" fill="white"/>
</svg>
