<svg width="28" height="28" viewBox="0 0 28 28" fill="none" xmlns="http://www.w3.org/2000/svg">
<path d="M14 0C21.732 0 28 6.26801 28 14C28 21.732 21.732 28 14 28C6.26801 28 0 21.732 0 14C0 6.26801 6.26801 0 14 0ZM11.7305 14.3242C9.58545 14.3242 7.83984 15.8845 7.83984 17.8018C7.83988 19.7194 9.58548 21.2803 11.7305 21.2803H16.2695C18.4145 21.2803 20.1601 19.7198 20.1602 17.8018C20.1602 15.8845 18.4141 14.3242 16.2695 14.3242H11.7305ZM14 7.28027C12.2844 7.2803 10.8888 8.68493 10.8887 10.4121C10.8887 12.1394 12.2843 13.5449 14 13.5449C15.7153 13.5449 17.1104 12.1394 17.1104 10.4121C17.1102 8.68491 15.7152 7.28027 14 7.28027Z" fill="#2C2C2E"/>
</svg>
