<svg width="14" height="14" viewBox="0 0 14 14" fill="none" xmlns="http://www.w3.org/2000/svg">
<path d="M7 0C4.24261 0 2 2.24929 2 5.01394C2 6.04032 2.30783 7.02825 2.88348 7.8594C2.91217 7.90919 2.9413 7.95723 2.97565 8.00396L6.62522 12.8284C6.72435 12.9389 6.85739 13 7 13C7.14087 13 7.27478 12.9384 7.39087 12.8078L11.0235 8.00353C11.0591 7.95549 11.09 7.90307 11.1065 7.8725C11.6894 7.03437 12.0013 6.03634 12 5.01394C12 2.24929 9.75695 0 7 0ZM7 6.80682C6.5269 6.80659 6.07319 6.61791 5.73837 6.28214C5.40355 5.94638 5.21495 5.49094 5.21391 5.01569C5.22649 4.54829 5.42016 4.10428 5.7537 3.77816C6.08725 3.45203 6.53432 3.26955 6.99978 3.26955C7.46524 3.26955 7.91232 3.45203 8.24586 3.77816C8.5794 4.10428 8.77307 4.54829 8.78565 5.01569C8.7845 5.49079 8.5959 5.94605 8.26119 6.2817C7.92648 6.61736 7.47295 6.80647 7 6.80682Z" fill="#1C1E22"/>
</svg>
