<svg width="165" height="206" viewBox="0 0 165 206" fill="none" xmlns="http://www.w3.org/2000/svg">
<rect width="165" height="206" fill="white"/>
<rect x="7" y="7" width="151" height="151" fill="#EBEBEB"/>
<path d="M126.502 153.198H124V152.202H124.498V152.7H126.502V153.198ZM124.498 152.202V151.698H125.002V152.202H124.498ZM125.002 151.698V151.2H125.5V151.698H125.002ZM125.5 151.2V150.702H125.998V151.2H125.5ZM125.998 150.702V149.202H126.502V150.702H125.998ZM124.498 149.202V150.198H124V149.202H124.498ZM125.998 149.202H124.498V148.698H125.998V149.202ZM128.998 153.198H127.498V152.7H128.998V153.198ZM128.998 152.7V150.702H128.5V151.2H128.002V151.698H127.498V152.7H127V149.202H127.498V151.2H128.002V150.702H128.5V150.198H128.998V149.202H129.502V152.7H128.998ZM128.998 149.202H127.498V148.698H128.998V149.202ZM132.502 153.198H130V152.202H130.498V152.7H132.502V153.198ZM130.498 152.202V151.698H131.002V152.202H130.498ZM131.002 151.698V151.2H131.5V151.698H131.002ZM131.5 151.2V150.702H131.998V151.2H131.5ZM131.998 150.702V149.202H132.502V150.702H131.998ZM130.498 149.202V150.198H130V149.202H130.498ZM131.998 149.202H130.498V148.698H131.998V149.202ZM133 152.7V152.202H133.498V152.7H134.998V153.198H133.498V152.7H133ZM133.498 151.2V150.702H134.002V150.198H134.5V150.702H134.998V151.2H135.502V152.7H134.998V151.2H133.498ZM133 149.202V148.698H135.502V149.7H134.998V150.198H134.5V149.7H134.998V149.202H133ZM136 151.2V150.702H138.502V151.2H136ZM140.998 153.198H139.498V152.7H140.998V153.198ZM140.998 152.7V150.702H140.5V151.2H140.002V151.698H139.498V152.7H139V149.202H139.498V151.2H140.002V150.702H140.5V150.198H140.998V149.202H141.502V152.7H140.998ZM140.998 149.202H139.498V148.698H140.998V149.202ZM142 150.198V149.7H142.498V150.198H142ZM143.5 148.698V153.198H143.002V149.7H142.498V149.202H143.002V148.698H143.5ZM145 151.2V150.702H147.502V151.2H145ZM148 150.198V149.7H148.498V150.198H148ZM149.5 148.698V153.198H149.002V149.7H148.498V149.202H149.002V148.698H149.5ZM152.998 153.198H151.498V152.7H152.998V153.198ZM152.998 152.7V150.702H152.5V151.2H152.002V151.698H151.498V152.7H151V149.202H151.498V151.2H152.002V150.702H152.5V150.198H152.998V149.202H153.502V152.7H152.998ZM152.998 149.202H151.498V148.698H152.998V149.202Z" fill="#F56E00"/>
<path d="M10.032 178.08V177.02H10.416V178.448H9.196V179.828H10.232V178.768H10.612V180.384H10.232V180.192H7.388V178.768H7.768V179.828H8.804V178.448H7.584V177.02H7.968V178.08H8.804V176.716H9.196V178.08H10.032ZM12 177.792C11.84 178.152 11.64 178.452 11.396 178.692L11.148 178.376C11.508 177.996 11.752 177.484 11.88 176.84L12.268 176.908C12.228 177.092 12.184 177.264 12.136 177.424H12.88V176.752H13.26V177.424H14.544V177.792H13.26V178.62H14.464V178.988H13.26V179.9H14.8V180.276H11.252V179.9H12.88V178.988H11.736V178.62H12.88V177.792H12ZM16.844 178.096H15.528V177.748H18.52V178.74H17.212V179.064H18.664C18.664 179.552 18.628 179.864 18.564 179.996C18.496 180.132 18.344 180.2 18.104 180.204C17.936 180.204 17.768 180.2 17.608 180.196L17.516 179.836C17.704 179.844 17.88 179.852 18.044 179.852C18.156 179.852 18.224 179.812 18.248 179.736C18.264 179.664 18.276 179.548 18.276 179.388H17.212V180.416H16.844V179.456C16.564 179.8 16.092 180.096 15.432 180.348L15.22 180.004C15.804 179.82 16.22 179.612 16.46 179.388H15.412L15.604 178.396H16.844V178.096ZM16.844 178.74H15.94L15.86 179.064H16.844V178.74ZM17.212 178.396H18.132V178.096H17.212V178.396ZM15.82 177.308C15.732 177.44 15.632 177.564 15.524 177.68L15.192 177.476C15.436 177.236 15.612 176.98 15.716 176.704L16.084 176.784C16.056 176.852 16.028 176.916 16.004 176.976H17V177.308H16.436C16.512 177.404 16.576 177.496 16.628 177.584L16.288 177.708C16.212 177.572 16.124 177.436 16.028 177.308H15.82ZM17.52 177.292C17.44 177.432 17.352 177.564 17.252 177.684L16.924 177.48C17.136 177.24 17.288 176.98 17.38 176.704L17.744 176.784C17.72 176.844 17.7 176.904 17.68 176.96H18.808V177.292H18.16C18.24 177.396 18.308 177.492 18.36 177.584L18.024 177.708C17.952 177.564 17.864 177.424 17.76 177.292H17.52ZM19.188 178.344H22.808V178.72H19.188V178.344ZM23.304 178.104H24.724C24.768 177.852 24.8 177.576 24.816 177.276H23.408V176.912H26.592V177.276H25.2C25.18 177.58 25.148 177.856 25.108 178.104H26.708V178.468H25.288C25.568 179.184 26.084 179.736 26.84 180.124L26.604 180.432C25.824 180.008 25.288 179.408 24.992 178.636C24.928 178.86 24.856 179.048 24.768 179.2C24.5 179.676 24.044 180.088 23.404 180.436L23.164 180.124C23.748 179.82 24.164 179.464 24.412 179.048C24.504 178.892 24.58 178.7 24.644 178.468H23.304V178.104ZM27.768 179.428C27.872 179.428 27.956 179.468 28.028 179.552C28.092 179.64 28.128 179.748 28.128 179.884C28.128 180.088 28.068 180.264 27.948 180.416C27.828 180.568 27.668 180.672 27.468 180.728V180.48C27.576 180.44 27.668 180.38 27.74 180.292C27.804 180.2 27.84 180.108 27.84 180.012C27.816 180.02 27.784 180.024 27.744 180.024C27.66 180.024 27.592 179.996 27.536 179.94C27.48 179.884 27.452 179.812 27.452 179.728C27.452 179.636 27.48 179.564 27.54 179.508C27.596 179.452 27.672 179.428 27.768 179.428ZM31.28 176.904H34.72V177.276H33.428C33.356 177.428 33.28 177.576 33.196 177.716V180.42H32.804V178.26C32.436 178.688 31.972 179.072 31.408 179.408L31.156 179.076C32.032 178.58 32.648 177.98 33 177.276H31.28V176.904ZM33.7 177.992C34.148 178.344 34.528 178.7 34.836 179.052L34.536 179.352C34.272 179.012 33.904 178.648 33.428 178.256L33.7 177.992ZM37.868 177.232H36.74L36.612 178.324H37.78L37.868 177.232ZM36.232 178.324L36.36 177.232H35.512V176.864H38.272L38.06 179.932H38.784V180.3H35.216V179.932H36.04L36.188 178.692H35.604V178.324H36.232ZM36.424 179.932H37.656L37.752 178.692H36.568L36.424 179.932ZM39.768 179.428C39.872 179.428 39.956 179.468 40.028 179.552C40.092 179.64 40.128 179.748 40.128 179.884C40.128 180.088 40.068 180.264 39.948 180.416C39.828 180.568 39.668 180.672 39.468 180.728V180.48C39.576 180.44 39.668 180.38 39.74 180.292C39.804 180.2 39.84 180.108 39.84 180.012C39.816 180.02 39.784 180.024 39.744 180.024C39.66 180.024 39.592 179.996 39.536 179.94C39.48 179.884 39.452 179.812 39.452 179.728C39.452 179.636 39.48 179.564 39.54 179.508C39.596 179.452 39.672 179.428 39.768 179.428ZM46.464 180.348H46.212C45.988 180.348 45.88 180.224 45.88 179.984V177.984H45.74C45.708 179.06 45.468 179.852 45.02 180.36L44.752 180.124C45.144 179.668 45.356 178.952 45.384 177.984H45.028V177.628H45.388V176.724H45.744V177.628H46.728V177.984H46.228V179.908C46.228 179.972 46.256 180.008 46.32 180.008H46.404C46.436 180.008 46.46 179.976 46.476 179.912C46.5 179.844 46.512 179.636 46.52 179.288L46.844 179.392C46.82 179.856 46.78 180.132 46.72 180.22C46.664 180.304 46.576 180.348 46.464 180.348ZM43.22 177.1H43.964C43.912 176.984 43.856 176.88 43.792 176.784L44.2 176.72C44.248 176.832 44.3 176.96 44.352 177.1H45.064V177.444H43.22V177.1ZM43.376 177.7H44.872V178.76H44.316V180.016C44.316 180.256 44.196 180.376 43.964 180.376H43.664L43.588 180.032C43.676 180.048 43.764 180.056 43.844 180.056C43.916 180.056 43.956 180.012 43.956 179.924V178.76H43.376V177.7ZM44.52 178.44V178.024H43.724V178.44H44.52ZM43.452 178.94L43.764 179.024C43.68 179.384 43.572 179.704 43.44 179.976L43.128 179.864C43.252 179.62 43.36 179.312 43.452 178.94ZM44.74 178.932C44.852 179.2 44.936 179.444 44.996 179.668L44.696 179.784C44.624 179.52 44.54 179.264 44.436 179.012L44.74 178.932ZM46.212 176.772C46.4 176.988 46.544 177.18 46.644 177.344L46.364 177.536C46.26 177.36 46.112 177.164 45.928 176.948L46.212 176.772ZM47.768 176.84H50.252V178.284H47.768V176.84ZM49.876 177.96V177.712H48.144V177.96H49.876ZM48.144 177.412H49.876V177.164H48.144V177.412ZM48.856 178.86H47.22V178.516H50.784V178.86H49.236V179.232H50.356V179.568H49.236V179.996C49.42 180.012 49.636 180.02 49.876 180.02C50.228 180.02 50.528 180.012 50.768 180.004L50.664 180.36C50.384 180.36 50.128 180.356 49.904 180.352C49.24 180.348 48.788 180.296 48.544 180.2C48.352 180.116 48.176 179.956 48.02 179.72C47.868 179.992 47.676 180.224 47.444 180.408L47.196 180.096C47.556 179.812 47.804 179.432 47.932 178.96L48.292 179.02C48.252 179.164 48.208 179.296 48.16 179.424C48.32 179.672 48.496 179.828 48.696 179.896C48.744 179.912 48.796 179.924 48.856 179.94V178.86ZM52.448 178.212V178.564H53.944V178.212H52.448ZM53.944 178.896H52.448V179.24H53.944V178.896ZM53.944 179.568H52.448V180.404H52.092V178.408C51.884 178.652 51.656 178.876 51.4 179.084L51.156 178.764C51.62 178.396 51.988 177.972 52.252 177.5H51.264V177.132H52.436C52.496 176.988 52.548 176.84 52.596 176.696L52.984 176.74C52.944 176.876 52.9 177.008 52.852 177.132H54.784V177.5H52.688C52.624 177.632 52.552 177.76 52.476 177.884H54.3V180.048C54.3 180.268 54.172 180.38 53.916 180.388H53.468L53.376 180.044C53.524 180.056 53.664 180.064 53.796 180.064C53.892 180.064 53.944 180.02 53.944 179.932V179.568ZM56.748 176.744H57.124V177.096H58.648V177.452H57.124V177.876H58.396V179.232H55.668V177.876H56.748V176.744ZM58.016 178.88V178.232H56.044V178.88H58.016ZM55.66 179.364L55.976 179.52C55.832 179.864 55.66 180.16 55.468 180.408L55.156 180.18C55.348 179.952 55.516 179.68 55.66 179.364ZM56.612 179.492C56.692 179.748 56.764 180.028 56.828 180.328L56.444 180.416C56.396 180.096 56.332 179.812 56.256 179.568L56.612 179.492ZM57.444 179.44C57.56 179.712 57.66 180.004 57.748 180.32L57.372 180.408C57.296 180.072 57.2 179.772 57.088 179.512L57.444 179.44ZM58.244 179.352C58.496 179.68 58.688 179.964 58.824 180.208L58.508 180.428C58.368 180.164 58.18 179.868 57.94 179.548L58.244 179.352ZM59.544 176.856H62.46V178.3H61.188V178.552H62.512V178.88H61.188V179.128H62.744V179.468H59.256V179.128H60.812V178.88H59.488V178.552H60.812V178.3H59.544V176.856ZM62.096 177.98V177.184H61.176V177.98H62.096ZM60.824 177.98V177.184H59.908V177.98H60.824ZM59.604 179.592L59.936 179.68C59.852 179.96 59.744 180.208 59.616 180.416L59.268 180.292C59.396 180.108 59.508 179.872 59.604 179.592ZM60.62 179.632C60.7 179.848 60.776 180.084 60.84 180.336L60.472 180.42C60.42 180.148 60.356 179.912 60.284 179.704L60.62 179.632ZM61.46 179.616C61.568 179.832 61.664 180.068 61.744 180.324L61.38 180.408C61.308 180.136 61.224 179.896 61.12 179.688L61.46 179.616ZM62.256 179.564C62.464 179.812 62.62 180.024 62.732 180.208L62.432 180.42C62.316 180.22 62.16 179.992 61.968 179.744L62.256 179.564ZM60.388 177.264C60.476 177.424 60.552 177.612 60.616 177.824L60.312 177.904C60.252 177.72 60.176 177.54 60.088 177.364L60.388 177.264ZM61.592 177.24L61.904 177.324C61.84 177.544 61.76 177.736 61.664 177.904L61.36 177.796C61.448 177.652 61.524 177.464 61.592 177.24ZM64 179.4C64.152 179.4 64.28 179.452 64.388 179.556C64.496 179.656 64.552 179.78 64.552 179.932C64.552 180.08 64.496 180.208 64.388 180.312C64.28 180.412 64.152 180.464 64 180.464C63.848 180.464 63.716 180.412 63.612 180.316C63.5 180.212 63.448 180.084 63.448 179.932C63.448 179.78 63.5 179.652 63.612 179.552C63.716 179.448 63.848 179.4 64 179.4ZM64 179.664C63.924 179.664 63.86 179.688 63.804 179.744C63.748 179.792 63.724 179.856 63.724 179.932C63.724 180.004 63.748 180.068 63.804 180.124C63.86 180.172 63.924 180.2 64 180.2C64.072 180.2 64.14 180.172 64.196 180.124C64.248 180.068 64.276 180.004 64.276 179.932C64.276 179.856 64.248 179.792 64.196 179.744C64.14 179.688 64.072 179.664 64 179.664Z" fill="#1C1E22"/>
<g clip-path="url(#clip0_1303_1623)">
<path d="M8.99986 184C8.21203 184 7.57129 184.643 7.57129 185.433C7.57129 185.726 7.65924 186.008 7.82371 186.246C7.83191 186.26 7.84023 186.273 7.85005 186.287L8.89278 187.665C8.9211 187.697 8.95911 187.714 8.99986 187.714C9.04011 187.714 9.07837 187.697 9.11154 187.659L10.1494 186.287C10.1596 186.273 10.1684 186.258 10.1732 186.249C10.3397 186.01 10.4288 185.725 10.4284 185.433C10.4284 184.643 9.78756 184 8.99986 184ZM8.99986 185.945C8.86469 185.945 8.73506 185.891 8.6394 185.795C8.54373 185.699 8.48985 185.569 8.48955 185.433C8.49314 185.3 8.54848 185.173 8.64378 185.079C8.73907 184.986 8.86681 184.934 8.9998 184.934C9.13279 184.934 9.26052 184.986 9.35582 185.079C9.45112 185.173 9.50645 185.3 9.51005 185.433C9.50972 185.569 9.45583 185.699 9.3602 185.795C9.26457 185.891 9.13499 185.945 8.99986 185.945Z" fill="#1C1E22"/>
</g>
<path d="M12.381 184.588C12.588 184.738 12.765 184.885 12.909 185.035L12.702 185.236C12.576 185.098 12.402 184.948 12.177 184.786L12.381 184.588ZM12.327 185.323C12.519 185.467 12.684 185.608 12.816 185.752L12.612 185.956C12.498 185.818 12.333 185.674 12.123 185.518L12.327 185.323ZM12.594 186.139L12.855 186.241C12.729 186.619 12.591 186.973 12.438 187.306L12.15 187.18C12.321 186.841 12.468 186.493 12.594 186.139ZM12.948 184.705H14.874V184.981H14.655V186.979C14.655 187.192 14.553 187.3 14.352 187.3H13.851L13.791 187.027C13.953 187.039 14.106 187.045 14.253 187.045C14.331 187.045 14.373 186.997 14.373 186.907V184.981H12.948V184.705ZM13.068 185.371H14.052V186.529H13.068V185.371ZM13.788 186.271V185.626H13.332V186.271H13.788ZM15.156 184.792H16.383C16.395 184.702 16.407 184.609 16.416 184.516L16.707 184.555C16.698 184.639 16.689 184.717 16.677 184.792H17.844V185.059H16.632C16.614 185.146 16.596 185.23 16.578 185.311H17.697V186.961C17.697 187.177 17.595 187.288 17.397 187.288H17.112L17.037 187.012L17.304 187.018C17.379 187.018 17.418 186.976 17.418 186.898V185.578H15.588V187.306H15.309V185.311H16.287C16.305 185.227 16.323 185.143 16.338 185.059H15.156V184.792ZM16.2 185.632C16.26 185.734 16.314 185.851 16.365 185.986H16.638C16.698 185.869 16.752 185.746 16.8 185.62L17.058 185.716C17.013 185.812 16.965 185.902 16.911 185.986H17.205V186.235H16.638V186.487H17.286V186.736H16.638V187.261H16.362V186.736H15.717V186.487H16.362V186.235H15.804V185.986H16.092C16.05 185.893 16.002 185.806 15.945 185.725L16.2 185.632ZM18.75 185.692C18.813 185.692 18.867 185.713 18.909 185.761C18.954 185.803 18.978 185.854 18.978 185.92C18.978 185.98 18.954 186.034 18.909 186.079C18.867 186.124 18.813 186.148 18.75 186.148C18.684 186.148 18.633 186.124 18.591 186.079C18.543 186.034 18.522 185.98 18.522 185.92C18.522 185.854 18.543 185.803 18.591 185.761C18.633 185.713 18.684 185.692 18.75 185.692ZM22.02 186.157V187.3H21.747V187.186H20.958V187.3H20.685V186.157H22.02ZM20.958 186.928H21.747V186.415H20.958V186.928ZM21.015 184.513L21.288 184.567C21.264 184.639 21.234 184.708 21.204 184.777H22.053V184.984C21.945 185.215 21.789 185.422 21.582 185.605C21.813 185.743 22.083 185.851 22.392 185.926L22.227 186.166C21.885 186.076 21.597 185.947 21.357 185.782C21.117 185.947 20.829 186.088 20.493 186.208L20.319 185.977C20.64 185.872 20.913 185.749 21.138 185.605C21.03 185.506 20.937 185.398 20.856 185.284C20.76 185.383 20.655 185.473 20.544 185.557L20.373 185.335C20.691 185.11 20.904 184.837 21.015 184.513ZM21.018 185.089C21.111 185.221 21.225 185.341 21.357 185.449C21.513 185.32 21.642 185.179 21.738 185.029H21.06C21.042 185.053 21.03 185.071 21.018 185.089ZM19.89 184.585C20.097 184.735 20.274 184.882 20.418 185.032L20.211 185.236C20.088 185.095 19.914 184.945 19.686 184.783L19.89 184.585ZM19.836 185.32C20.028 185.464 20.193 185.605 20.325 185.749L20.121 185.956C20.007 185.818 19.842 185.674 19.632 185.518L19.836 185.32ZM20.1 186.139L20.358 186.241C20.235 186.619 20.097 186.973 19.947 187.303L19.662 187.177C19.83 186.841 19.977 186.493 20.1 186.139ZM22.734 184.645H23.757V184.864C23.661 185.122 23.55 185.395 23.421 185.683C23.619 185.956 23.724 186.196 23.742 186.4C23.742 186.538 23.709 186.64 23.649 186.7C23.556 186.778 23.394 186.817 23.166 186.82L23.076 186.535C23.136 186.544 23.187 186.55 23.226 186.55C23.319 186.544 23.382 186.532 23.415 186.511C23.445 186.487 23.46 186.451 23.46 186.4C23.46 186.199 23.352 185.974 23.139 185.725C23.28 185.425 23.391 185.152 23.472 184.906H23.007V187.318H22.734V184.645ZM25.272 184.684V187.3H24.996V187.075H24.159V187.294H23.883V184.684H25.272ZM24.159 186.802H24.996V186.007H24.159V186.802ZM24.159 185.743H24.996V184.96H24.159V185.743Z" fill="#1C1E22"/>
<defs>
<clipPath id="clip0_1303_1623">
<rect width="4" height="4" fill="white" transform="translate(7 184)"/>
</clipPath>
</defs>
</svg>
