<svg width="165" height="206" viewBox="0 0 165 206" fill="none" xmlns="http://www.w3.org/2000/svg">
<rect width="165" height="206" fill="white"/>
<rect width="165" height="158" fill="#EBEBEB"/>
<path d="M133.502 10.198H131V9.202H131.498V9.7H133.502V10.198ZM131.498 9.202V8.698H132.002V9.202H131.498ZM132.002 8.698V8.2H132.5V8.698H132.002ZM132.5 8.2V7.702H132.998V8.2H132.5ZM132.998 7.702V6.202H133.502V7.702H132.998ZM131.498 6.202V7.198H131V6.202H131.498ZM132.998 6.202H131.498V5.698H132.998V6.202ZM135.998 10.198H134.498V9.7H135.998V10.198ZM135.998 9.7V7.702H135.5V8.2H135.002V8.698H134.498V9.7H134V6.202H134.498V8.2H135.002V7.702H135.5V7.198H135.998V6.202H136.502V9.7H135.998ZM135.998 6.202H134.498V5.698H135.998V6.202ZM139.502 10.198H137V9.202H137.498V9.7H139.502V10.198ZM137.498 9.202V8.698H138.002V9.202H137.498ZM138.002 8.698V8.2H138.5V8.698H138.002ZM138.5 8.2V7.702H138.998V8.2H138.5ZM138.998 7.702V6.202H139.502V7.702H138.998ZM137.498 6.202V7.198H137V6.202H137.498ZM138.998 6.202H137.498V5.698H138.998V6.202ZM140 9.7V9.202H140.498V9.7H141.998V10.198H140.498V9.7H140ZM140.498 8.2V7.702H141.002V7.198H141.5V7.702H141.998V8.2H142.502V9.7H141.998V8.2H140.498ZM140 6.202V5.698H142.502V6.7H141.998V7.198H141.5V6.7H141.998V6.202H140ZM143 8.2V7.702H145.502V8.2H143ZM147.998 10.198H146.498V9.7H147.998V10.198ZM147.998 9.7V7.702H147.5V8.2H147.002V8.698H146.498V9.7H146V6.202H146.498V8.2H147.002V7.702H147.5V7.198H147.998V6.202H148.502V9.7H147.998ZM147.998 6.202H146.498V5.698H147.998V6.202ZM150.998 9.202V10.198H150.5V9.202H149V7.702H149.498V8.698H150.5V6.7H150.002V7.702H149.498V6.7H150.002V5.698H150.998V8.698H151.502V9.202H150.998ZM152 8.2V7.702H154.502V8.2H152ZM156.998 10.198H155.498V9.7H156.998V10.198ZM156.998 9.7V7.702H156.5V8.2H156.002V8.698H155.498V9.7H155V6.202H155.498V8.2H156.002V7.702H156.5V7.198H156.998V6.202H157.502V9.7H156.998ZM156.998 6.202H155.498V5.698H156.998V6.202ZM158.498 10.198V9.7H159.5V10.198H158.498ZM159.5 9.7V9.202H159.998V9.7H159.5ZM159.998 9.202V8.698H158.498V8.2H159.998V6.202H160.502V9.202H159.998ZM158.498 8.2H158V6.202H158.498V8.2ZM159.998 6.202H158.498V5.698H159.998V6.202Z" fill="#F56E00"/>
<path d="M10.412 177.764V180.408H10.028V180.264H8V180.408H7.612V177.764H8.648C8.696 177.588 8.732 177.408 8.756 177.224H7.192V176.852H10.816V177.224H9.132C9.104 177.412 9.068 177.592 9.02 177.764H10.412ZM8 179.892H10.028V179.176H8V179.892ZM8 178.828H10.028V178.128H8V178.828ZM11.304 178.104H12.724C12.768 177.852 12.8 177.576 12.816 177.276H11.408V176.912H14.592V177.276H13.2C13.18 177.58 13.148 177.856 13.108 178.104H14.708V178.468H13.288C13.568 179.184 14.084 179.736 14.84 180.124L14.604 180.432C13.824 180.008 13.288 179.408 12.992 178.636C12.928 178.86 12.856 179.048 12.768 179.2C12.5 179.676 12.044 180.088 11.404 180.436L11.164 180.124C11.748 179.82 12.164 179.464 12.412 179.048C12.504 178.892 12.58 178.7 12.644 178.468H11.304V178.104ZM15.352 176.856H16.572V179.316H15.352V176.856ZM16.212 178.976V178.252H15.724V178.976H16.212ZM15.724 177.908H16.212V177.196H15.724V177.908ZM16.836 178.208H18.564V179.316H16.836V178.208ZM18.192 178.984V178.544H17.208V178.984H18.192ZM17.304 177.212H16.78V176.856H18.66C18.648 177.356 18.612 177.672 18.548 177.8C18.48 177.98 18.336 178.072 18.112 178.076C18.024 178.076 17.924 178.068 17.812 178.06L17.704 177.728C17.848 177.744 17.968 177.752 18.072 177.752C18.156 177.748 18.208 177.692 18.232 177.584C18.256 177.532 18.268 177.408 18.276 177.212H17.668C17.6 177.632 17.324 177.94 16.844 178.136L16.644 177.824C17.02 177.696 17.24 177.492 17.304 177.212ZM15.56 179.456L15.9 179.544C15.816 179.88 15.712 180.18 15.584 180.436L15.236 180.312C15.36 180.088 15.468 179.8 15.56 179.456ZM16.608 179.524C16.68 179.772 16.744 180.04 16.8 180.332L16.436 180.42C16.384 180.108 16.324 179.836 16.26 179.6L16.608 179.524ZM17.46 179.484C17.564 179.74 17.66 180.02 17.74 180.324L17.372 180.412C17.3 180.092 17.212 179.808 17.104 179.56L17.46 179.484ZM18.284 179.408C18.504 179.712 18.672 179.98 18.792 180.212L18.488 180.424C18.364 180.172 18.196 179.896 17.988 179.592L18.284 179.408ZM19.768 179.428C19.872 179.428 19.956 179.468 20.028 179.552C20.092 179.64 20.128 179.748 20.128 179.884C20.128 180.088 20.068 180.264 19.948 180.416C19.828 180.568 19.668 180.672 19.468 180.728V180.48C19.576 180.44 19.668 180.38 19.74 180.292C19.804 180.2 19.84 180.108 19.84 180.012C19.816 180.02 19.784 180.024 19.744 180.024C19.66 180.024 19.592 179.996 19.536 179.94C19.48 179.884 19.452 179.812 19.452 179.728C19.452 179.636 19.48 179.564 19.54 179.508C19.596 179.452 19.672 179.428 19.768 179.428ZM23.932 176.708L24.304 176.752C24.272 176.86 24.236 176.964 24.204 177.064H24.9V177.384C24.832 177.656 24.708 177.896 24.528 178.1C24.668 178.172 24.804 178.252 24.936 178.332L24.728 178.628C24.6 178.536 24.448 178.44 24.268 178.344C24.036 178.52 23.744 178.664 23.4 178.776L23.228 178.468C23.5 178.388 23.732 178.284 23.924 178.164C23.772 178.088 23.616 178.012 23.448 177.936C23.536 177.752 23.616 177.576 23.688 177.408H23.284V177.064H23.82C23.86 176.94 23.9 176.82 23.932 176.708ZM24.204 177.94C24.36 177.78 24.476 177.604 24.552 177.408H24.064C24.004 177.544 23.94 177.672 23.872 177.796C23.984 177.84 24.096 177.888 24.204 177.94ZM25.164 177.332H25.052V176.992H26.584V177.312C26.492 177.608 26.344 177.86 26.144 178.072C26.324 178.184 26.544 178.284 26.8 178.376L26.628 178.692C26.328 178.588 26.076 178.46 25.872 178.312C25.68 178.448 25.464 178.56 25.22 178.656L25.052 178.344C25.26 178.272 25.444 178.188 25.604 178.084C25.388 177.864 25.24 177.612 25.164 177.332ZM25.864 177.876C26.02 177.716 26.136 177.532 26.212 177.332H25.5C25.548 177.532 25.672 177.712 25.864 177.876ZM24.776 178.656H25.156C25.156 178.768 25.148 178.876 25.132 178.98H26.52C26.512 179.644 26.452 180.04 26.332 180.168C26.216 180.296 26.016 180.364 25.728 180.364C25.584 180.364 25.416 180.356 25.216 180.348L25.12 180.012L25.644 180.032C25.852 180.028 25.984 179.988 26.04 179.916C26.088 179.84 26.12 179.64 26.132 179.316H25.048C25.012 179.42 24.968 179.512 24.916 179.6C24.72 179.928 24.256 180.204 23.524 180.42L23.272 180.116C23.912 179.94 24.332 179.728 24.532 179.48C24.572 179.428 24.604 179.372 24.632 179.316H23.464V178.98H24.744C24.76 178.876 24.772 178.768 24.776 178.656ZM28.624 176.732H29.008V177.156C29.004 177.276 29 177.392 28.992 177.508H30.516C30.5 178.212 30.476 178.78 30.436 179.216C30.396 179.644 30.328 179.944 30.232 180.116C30.136 180.28 29.984 180.368 29.772 180.384H29.216L29.112 180.016C29.28 180.024 29.436 180.028 29.584 180.028C29.796 180.028 29.936 179.896 30 179.636C30.068 179.36 30.112 178.772 30.132 177.876H28.96C28.896 178.432 28.78 178.9 28.608 179.276C28.368 179.768 27.98 180.148 27.444 180.412L27.24 180.092C27.768 179.804 28.124 179.44 28.316 178.996C28.44 178.684 28.528 178.308 28.576 177.876H27.452V177.508H28.608C28.616 177.388 28.62 177.272 28.624 177.156V176.732ZM31.664 180.368H31.3L31.216 180.004C31.324 180.02 31.428 180.028 31.532 180.028C31.628 180.028 31.68 179.976 31.68 179.876V179.02C31.528 179.076 31.376 179.132 31.22 179.18L31.124 178.796C31.312 178.756 31.496 178.704 31.68 178.64V177.788H31.2V177.424H31.68V176.724H32.056V177.424H32.456V177.788H32.056V178.492C32.2 178.424 32.344 178.352 32.48 178.28V178.668C32.34 178.74 32.2 178.804 32.056 178.868V179.976C32.056 180.236 31.924 180.368 31.664 180.368ZM34.548 178.648V180.416H34.184V180.176H33.052V180.416H32.692V178.648H34.548ZM33.052 179.82H34.184V178.996H33.052V179.82ZM32.572 178.352L32.504 178.016C32.712 177.952 33 177.516 33.376 176.708L33.744 176.836C33.52 177.292 33.288 177.676 33.052 177.988C33.444 177.964 33.824 177.92 34.192 177.864C34.092 177.676 33.988 177.496 33.88 177.328L34.208 177.168C34.424 177.516 34.636 177.9 34.836 178.316L34.492 178.484C34.444 178.38 34.4 178.276 34.352 178.18C33.816 178.256 33.224 178.312 32.572 178.352ZM35.268 178.556H37.012C37.056 178.364 37.084 178.156 37.096 177.932V176.728H37.476V177.932C37.468 178.156 37.444 178.364 37.404 178.556H38.752V178.928H37.3C37.276 178.992 37.248 179.056 37.22 179.12C37.82 179.46 38.324 179.8 38.74 180.14L38.468 180.408C38.128 180.096 37.66 179.764 37.064 179.408C37.032 179.456 37 179.5 36.968 179.544C36.66 179.92 36.16 180.208 35.472 180.412L35.268 180.092C35.964 179.88 36.44 179.612 36.688 179.284C36.764 179.172 36.832 179.056 36.888 178.928H35.268V178.556ZM35.62 177.56C35.948 177.704 36.252 177.876 36.528 178.076L36.32 178.392C36.028 178.168 35.728 177.988 35.42 177.856L35.62 177.56ZM36.06 176.92C36.34 177.044 36.6 177.192 36.836 177.364L36.632 177.668C36.384 177.476 36.124 177.324 35.86 177.216L36.06 176.92ZM39.472 177.424H40.732C40.764 177.356 40.792 177.288 40.82 177.22C40.444 177.24 40.036 177.252 39.604 177.252L39.496 176.94C40.624 176.94 41.576 176.864 42.344 176.716L42.52 177.016C42.14 177.096 41.696 177.156 41.192 177.196C41.164 177.276 41.136 177.352 41.108 177.424H42.544V177.748H40.956C40.916 177.816 40.88 177.884 40.84 177.948H42.776V178.284H40.616C40.56 178.352 40.508 178.42 40.456 178.484H42.396V180.416H42.036V180.264H40.304V180.416H39.944V179C39.76 179.16 39.564 179.308 39.356 179.452L39.152 179.128C39.544 178.864 39.876 178.58 40.148 178.284H39.256V177.948H40.42C40.468 177.88 40.516 177.812 40.556 177.748H39.472V177.424ZM40.304 179.276V179.464H42.036V179.276H40.304ZM42.036 178.988V178.792H40.304V178.988H42.036ZM40.304 179.752V179.956H42.036V179.752H40.304ZM43.184 177.64H43.664V176.768H44.052V177.64H44.772V176.732H45.144V177.64H45.868V176.732H46.24V177.64H46.812V178.004H46.24V179.264H44.772V178.004H44.052V179.876H46.676V180.264H43.664V178.004H43.184V177.64ZM45.144 178.004V178.896H45.868V178.004H45.144ZM47.6 176.852H50.416V178.508H49.704C49.96 178.776 50.348 178.992 50.868 179.152L50.704 179.488C50.352 179.352 50.056 179.196 49.816 179.02V180.42H49.432V178.892H49.652C49.508 178.768 49.392 178.64 49.296 178.508H48.704C48.596 178.644 48.472 178.772 48.328 178.888H48.632C48.632 179.208 48.584 179.484 48.488 179.708C48.372 179.996 48.1 180.232 47.672 180.424L47.42 180.12C47.772 179.976 48.004 179.796 48.116 179.584C48.196 179.42 48.24 179.208 48.248 178.952C47.992 179.14 47.688 179.308 47.328 179.452L47.124 179.12C47.644 178.956 48.032 178.752 48.288 178.508H47.6V176.852ZM50.052 178.176V177.832H49.184V178.176H50.052ZM48.816 178.176V177.832H47.964V178.176H48.816ZM47.964 177.52H48.816V177.188H47.964V177.52ZM49.184 177.188V177.52H50.052V177.188H49.184ZM51.768 179.428C51.872 179.428 51.956 179.468 52.028 179.552C52.092 179.64 52.128 179.748 52.128 179.884C52.128 180.088 52.068 180.264 51.948 180.416C51.828 180.568 51.668 180.672 51.468 180.728V180.48C51.576 180.44 51.668 180.38 51.74 180.292C51.804 180.2 51.84 180.108 51.84 180.012C51.816 180.02 51.784 180.024 51.744 180.024C51.66 180.024 51.592 179.996 51.536 179.94C51.48 179.884 51.452 179.812 51.452 179.728C51.452 179.636 51.48 179.564 51.54 179.508C51.596 179.452 51.672 179.428 51.768 179.428ZM58.496 177.168V180.348H58.108V180.12H55.892V180.348H55.508V177.168H58.496ZM55.892 179.748H58.108V177.54H55.892V179.748ZM59.268 177.704H60.584V178.004C60.392 178.892 59.988 179.564 59.376 180.02L59.136 179.708C59.656 179.324 60.012 178.776 60.208 178.072H59.268V177.704ZM62.332 177.328L62.64 177.556C62.336 177.932 62.016 178.248 61.688 178.508C61.996 178.996 62.392 179.4 62.876 179.72L62.636 180.068C61.988 179.544 61.516 178.964 61.224 178.332V179.972C61.224 180.252 61.092 180.396 60.832 180.396H60.304L60.22 180.024C60.388 180.04 60.548 180.048 60.7 180.048C60.792 180.048 60.84 179.988 60.84 179.876V176.712H61.224V177.54C61.304 177.78 61.404 178.004 61.516 178.216C61.816 177.952 62.088 177.656 62.332 177.328ZM64.36 178.444L64.276 178.124C64.308 178.112 64.336 178.1 64.352 178.092C64.492 178.008 64.668 177.788 64.884 177.436H64.252V177.096H65.32C65.272 176.968 65.22 176.848 65.164 176.736L65.552 176.672C65.604 176.8 65.656 176.94 65.708 177.096H66.732V177.436H65.276C65.116 177.716 64.976 177.932 64.848 178.084C65.248 178.056 65.652 178.02 66.052 177.976C65.976 177.876 65.9 177.776 65.82 177.676L66.128 177.488C66.404 177.816 66.616 178.104 66.76 178.352L66.444 178.572C66.388 178.476 66.328 178.376 66.264 178.28C65.68 178.348 65.044 178.404 64.36 178.444ZM63.56 176.756C63.8 176.924 64.008 177.096 64.176 177.268L63.904 177.54C63.756 177.38 63.548 177.204 63.284 177.02L63.56 176.756ZM63.464 177.712C63.712 177.904 63.924 178.1 64.092 178.292L63.82 178.564C63.672 178.38 63.464 178.184 63.192 177.976L63.464 177.712ZM63.788 178.792L64.124 178.92C63.972 179.432 63.8 179.912 63.612 180.36L63.264 180.204C63.464 179.744 63.64 179.272 63.788 178.792ZM65.144 178.58H65.528V180.332H65.144V178.58ZM64.492 178.58H64.86C64.844 179.108 64.792 179.492 64.704 179.74C64.608 179.996 64.444 180.216 64.22 180.408L63.976 180.108C64.16 179.956 64.288 179.776 64.364 179.568C64.436 179.368 64.476 179.04 64.492 178.58ZM66.452 180.372H66.276C66.004 180.372 65.872 180.252 65.872 180.02V178.58H66.232V179.948C66.232 179.992 66.252 180.02 66.292 180.028H66.436C66.488 180.02 66.516 179.964 66.524 179.868C66.532 179.764 66.54 179.612 66.54 179.42L66.872 179.544C66.872 179.92 66.844 180.152 66.792 180.236C66.74 180.316 66.628 180.36 66.452 180.372ZM70.02 176.692C70.204 176.832 70.36 176.972 70.488 177.116L70.304 177.3H70.784V177.664H69.592C69.62 178.136 69.668 178.504 69.736 178.764C69.752 178.832 69.772 178.9 69.792 178.964C69.96 178.668 70.1 178.332 70.212 177.952L70.56 178.1C70.4 178.612 70.2 179.052 69.952 179.412C69.996 179.508 70.04 179.588 70.084 179.656C70.204 179.832 70.3 179.924 70.364 179.924C70.416 179.924 70.468 179.728 70.52 179.336L70.864 179.52C70.764 180.072 70.616 180.352 70.424 180.352C70.248 180.352 70.064 180.232 69.872 179.996C69.808 179.916 69.752 179.828 69.7 179.732C69.432 180.032 69.12 180.26 68.768 180.416L68.552 180.096C68.936 179.924 69.26 179.676 69.524 179.348C69.468 179.204 69.42 179.048 69.376 178.88C69.288 178.556 69.232 178.152 69.204 177.664H67.916V178.248H68.896C68.888 178.972 68.852 179.428 68.788 179.62C68.724 179.788 68.588 179.872 68.38 179.876C68.284 179.876 68.172 179.868 68.048 179.856L67.932 179.512C68.092 179.52 68.224 179.528 68.336 179.528C68.408 179.524 68.452 179.48 68.476 179.392C68.5 179.288 68.512 179.024 68.52 178.608H67.916V178.632C67.9 179.372 67.736 179.964 67.432 180.412L67.144 180.156C67.392 179.792 67.524 179.284 67.536 178.632V177.3H69.184C69.176 177.112 69.176 176.916 69.176 176.712H69.56C69.56 176.92 69.568 177.116 69.576 177.3H70.192C70.084 177.18 69.948 177.052 69.78 176.924L70.02 176.692ZM71.508 176.784C71.784 176.984 72.02 177.18 72.212 177.38L71.936 177.648C71.768 177.464 71.536 177.264 71.236 177.048L71.508 176.784ZM71.436 177.764C71.692 177.956 71.912 178.144 72.088 178.336L71.816 178.608C71.664 178.424 71.444 178.232 71.164 178.024L71.436 177.764ZM71.792 178.852L72.14 178.988C71.972 179.492 71.788 179.964 71.584 180.408L71.2 180.24C71.428 179.788 71.624 179.324 71.792 178.852ZM72.264 176.94H74.832V177.308H74.54V179.972C74.54 180.256 74.404 180.4 74.136 180.4H73.468L73.388 180.036C73.604 180.052 73.808 180.06 74.004 180.06C74.108 180.06 74.164 179.996 74.164 179.876V177.308H72.264V176.94ZM72.424 177.828H73.736V179.372H72.424V177.828ZM73.384 179.028V178.168H72.776V179.028H73.384Z" fill="#1C1E22"/>
<g clip-path="url(#clip0_1313_1181)">
<path d="M8.99986 184C8.21203 184 7.57129 184.643 7.57129 185.433C7.57129 185.726 7.65924 186.008 7.82371 186.246C7.83191 186.26 7.84023 186.273 7.85005 186.287L8.89278 187.665C8.9211 187.697 8.95911 187.714 8.99986 187.714C9.04011 187.714 9.07837 187.697 9.11154 187.659L10.1494 186.287C10.1596 186.273 10.1684 186.258 10.1732 186.249C10.3397 186.01 10.4288 185.725 10.4284 185.433C10.4284 184.643 9.78756 184 8.99986 184ZM8.99986 185.945C8.86469 185.945 8.73506 185.891 8.6394 185.795C8.54373 185.699 8.48985 185.569 8.48955 185.433C8.49314 185.3 8.54848 185.173 8.64378 185.079C8.73907 184.986 8.86681 184.934 8.9998 184.934C9.13279 184.934 9.26052 184.986 9.35582 185.079C9.45112 185.173 9.50645 185.3 9.51005 185.433C9.50972 185.569 9.45583 185.699 9.3602 185.795C9.26457 185.891 9.13499 185.945 8.99986 185.945Z" fill="#1C1E22"/>
</g>
<path d="M12.381 184.588C12.588 184.738 12.765 184.885 12.909 185.035L12.702 185.236C12.576 185.098 12.402 184.948 12.177 184.786L12.381 184.588ZM12.327 185.323C12.519 185.467 12.684 185.608 12.816 185.752L12.612 185.956C12.498 185.818 12.333 185.674 12.123 185.518L12.327 185.323ZM12.594 186.139L12.855 186.241C12.729 186.619 12.591 186.973 12.438 187.306L12.15 187.18C12.321 186.841 12.468 186.493 12.594 186.139ZM12.948 184.705H14.874V184.981H14.655V186.979C14.655 187.192 14.553 187.3 14.352 187.3H13.851L13.791 187.027C13.953 187.039 14.106 187.045 14.253 187.045C14.331 187.045 14.373 186.997 14.373 186.907V184.981H12.948V184.705ZM13.068 185.371H14.052V186.529H13.068V185.371ZM13.788 186.271V185.626H13.332V186.271H13.788ZM15.156 184.792H16.383C16.395 184.702 16.407 184.609 16.416 184.516L16.707 184.555C16.698 184.639 16.689 184.717 16.677 184.792H17.844V185.059H16.632C16.614 185.146 16.596 185.23 16.578 185.311H17.697V186.961C17.697 187.177 17.595 187.288 17.397 187.288H17.112L17.037 187.012L17.304 187.018C17.379 187.018 17.418 186.976 17.418 186.898V185.578H15.588V187.306H15.309V185.311H16.287C16.305 185.227 16.323 185.143 16.338 185.059H15.156V184.792ZM16.2 185.632C16.26 185.734 16.314 185.851 16.365 185.986H16.638C16.698 185.869 16.752 185.746 16.8 185.62L17.058 185.716C17.013 185.812 16.965 185.902 16.911 185.986H17.205V186.235H16.638V186.487H17.286V186.736H16.638V187.261H16.362V186.736H15.717V186.487H16.362V186.235H15.804V185.986H16.092C16.05 185.893 16.002 185.806 15.945 185.725L16.2 185.632ZM18.75 185.692C18.813 185.692 18.867 185.713 18.909 185.761C18.954 185.803 18.978 185.854 18.978 185.92C18.978 185.98 18.954 186.034 18.909 186.079C18.867 186.124 18.813 186.148 18.75 186.148C18.684 186.148 18.633 186.124 18.591 186.079C18.543 186.034 18.522 185.98 18.522 185.92C18.522 185.854 18.543 185.803 18.591 185.761C18.633 185.713 18.684 185.692 18.75 185.692ZM22.02 186.157V187.3H21.747V187.186H20.958V187.3H20.685V186.157H22.02ZM20.958 186.928H21.747V186.415H20.958V186.928ZM21.015 184.513L21.288 184.567C21.264 184.639 21.234 184.708 21.204 184.777H22.053V184.984C21.945 185.215 21.789 185.422 21.582 185.605C21.813 185.743 22.083 185.851 22.392 185.926L22.227 186.166C21.885 186.076 21.597 185.947 21.357 185.782C21.117 185.947 20.829 186.088 20.493 186.208L20.319 185.977C20.64 185.872 20.913 185.749 21.138 185.605C21.03 185.506 20.937 185.398 20.856 185.284C20.76 185.383 20.655 185.473 20.544 185.557L20.373 185.335C20.691 185.11 20.904 184.837 21.015 184.513ZM21.018 185.089C21.111 185.221 21.225 185.341 21.357 185.449C21.513 185.32 21.642 185.179 21.738 185.029H21.06C21.042 185.053 21.03 185.071 21.018 185.089ZM19.89 184.585C20.097 184.735 20.274 184.882 20.418 185.032L20.211 185.236C20.088 185.095 19.914 184.945 19.686 184.783L19.89 184.585ZM19.836 185.32C20.028 185.464 20.193 185.605 20.325 185.749L20.121 185.956C20.007 185.818 19.842 185.674 19.632 185.518L19.836 185.32ZM20.1 186.139L20.358 186.241C20.235 186.619 20.097 186.973 19.947 187.303L19.662 187.177C19.83 186.841 19.977 186.493 20.1 186.139ZM22.734 184.645H23.757V184.864C23.661 185.122 23.55 185.395 23.421 185.683C23.619 185.956 23.724 186.196 23.742 186.4C23.742 186.538 23.709 186.64 23.649 186.7C23.556 186.778 23.394 186.817 23.166 186.82L23.076 186.535C23.136 186.544 23.187 186.55 23.226 186.55C23.319 186.544 23.382 186.532 23.415 186.511C23.445 186.487 23.46 186.451 23.46 186.4C23.46 186.199 23.352 185.974 23.139 185.725C23.28 185.425 23.391 185.152 23.472 184.906H23.007V187.318H22.734V184.645ZM25.272 184.684V187.3H24.996V187.075H24.159V187.294H23.883V184.684H25.272ZM24.159 186.802H24.996V186.007H24.159V186.802ZM24.159 185.743H24.996V184.96H24.159V185.743Z" fill="#1C1E22"/>
<defs>
<clipPath id="clip0_1313_1181">
<rect width="4" height="4" fill="white" transform="translate(7 184)"/>
</clipPath>
</defs>
</svg>
