<svg width="26" height="26" viewBox="0 0 26 26" fill="none" xmlns="http://www.w3.org/2000/svg">
<path d="M24.3598 10.0928C24.3598 10.1207 24.3623 10.1537 24.3623 10.1918C24.3623 10.857 24.2227 11.5553 23.9357 12.3271C23.8316 12.6191 23.7021 12.9162 23.5396 13.2387L23.5346 13.2463L23.527 13.2666L23.4863 13.3377C23.4762 13.3529 23.466 13.3732 23.4533 13.4012L23.4254 13.4545C23.367 13.5713 23.2908 13.7186 23.1943 13.8734C22.1838 15.6406 20.4826 17.6338 18.1365 19.7971C16.9279 20.9117 15.6051 22.0188 14.2061 23.0826C14.1553 23.1232 14.1197 23.1486 14.1045 23.1613L14.0969 23.1689C13.7744 23.4203 13.3783 23.5574 12.9822 23.5574C12.5811 23.5574 12.1977 23.4229 11.8727 23.1715L11.8701 23.1689C11.8574 23.1588 11.827 23.1359 11.7863 23.1055C9.81602 21.615 8.29766 20.2566 7.37344 19.3781C4.73027 16.8797 2.98594 14.6225 2.18867 12.675C2.1709 12.6369 2.16074 12.6039 2.15059 12.5811L2.14805 12.5734C1.81035 11.7279 1.64023 10.9256 1.64023 10.1893C1.64023 10.1689 1.64023 10.1436 1.64277 10.1156C1.63262 10.0166 1.625 9.90996 1.625 9.78555C1.625 5.7332 4.74043 2.4375 8.56934 2.4375C9.50879 2.4375 10.4229 2.63809 11.2912 3.03672C11.9107 3.32109 12.4846 3.6918 12.9975 4.14883C13.5104 3.69434 14.0816 3.32109 14.7012 3.03672C15.5721 2.63809 16.4887 2.4375 17.4307 2.4375C21.2596 2.4375 24.375 5.7332 24.375 9.78555C24.375 9.90996 24.3674 10.0166 24.3598 10.0928Z" fill="#FF0004"/>
</svg>
