<svg width="165" height="206" viewBox="0 0 165 206" fill="none" xmlns="http://www.w3.org/2000/svg">
<rect width="165" height="206" fill="white"/>
<rect x="7" y="48" width="151" height="110" fill="#EBEBEB"/>
<path d="M126.502 153.198H124V152.202H124.498V152.7H126.502V153.198ZM124.498 152.202V151.698H125.002V152.202H124.498ZM125.002 151.698V151.2H125.5V151.698H125.002ZM125.5 151.2V150.702H125.998V151.2H125.5ZM125.998 150.702V149.202H126.502V150.702H125.998ZM124.498 149.202V150.198H124V149.202H124.498ZM125.998 149.202H124.498V148.698H125.998V149.202ZM128.998 153.198H127.498V152.7H128.998V153.198ZM128.998 152.7V150.702H128.5V151.2H128.002V151.698H127.498V152.7H127V149.202H127.498V151.2H128.002V150.702H128.5V150.198H128.998V149.202H129.502V152.7H128.998ZM128.998 149.202H127.498V148.698H128.998V149.202ZM132.502 153.198H130V152.202H130.498V152.7H132.502V153.198ZM130.498 152.202V151.698H131.002V152.202H130.498ZM131.002 151.698V151.2H131.5V151.698H131.002ZM131.5 151.2V150.702H131.998V151.2H131.5ZM131.998 150.702V149.202H132.502V150.702H131.998ZM130.498 149.202V150.198H130V149.202H130.498ZM131.998 149.202H130.498V148.698H131.998V149.202ZM133 152.7V152.202H133.498V152.7H134.998V153.198H133.498V152.7H133ZM133.498 151.2V150.702H134.002V150.198H134.5V150.702H134.998V151.2H135.502V152.7H134.998V151.2H133.498ZM133 149.202V148.698H135.502V149.7H134.998V150.198H134.5V149.7H134.998V149.202H133ZM136 151.2V150.702H138.502V151.2H136ZM140.998 153.198H139.498V152.7H140.998V153.198ZM140.998 152.7V150.702H140.5V151.2H140.002V151.698H139.498V152.7H139V149.202H139.498V151.2H140.002V150.702H140.5V150.198H140.998V149.202H141.502V152.7H140.998ZM140.998 149.202H139.498V148.698H140.998V149.202ZM144.502 153.198H142V152.202H142.498V152.7H144.502V153.198ZM142.498 152.202V151.698H143.002V152.202H142.498ZM143.002 151.698V151.2H143.5V151.698H143.002ZM143.5 151.2V150.702H143.998V151.2H143.5ZM143.998 150.702V149.202H144.502V150.702H143.998ZM142.498 149.202V150.198H142V149.202H142.498ZM143.998 149.202H142.498V148.698H143.998V149.202ZM145 151.2V150.702H147.502V151.2H145ZM148 150.198V149.7H148.498V150.198H148ZM149.5 148.698V153.198H149.002V149.7H148.498V149.202H149.002V148.698H149.5ZM152.998 153.198H151.498V152.7H152.998V153.198ZM152.998 152.7V150.702H152.5V151.2H152.002V151.698H151.498V152.7H151V149.202H151.498V151.2H152.002V150.702H152.5V150.198H152.998V149.202H153.502V152.7H152.998ZM152.998 149.202H151.498V148.698H152.998V149.202Z" fill="#F56E00"/>
<path d="M9 179.508C8.916 179.652 8.812 179.776 8.692 179.888C8.424 180.116 7.968 180.296 7.324 180.428L7.18 180.092C7.74 179.988 8.144 179.848 8.392 179.664C8.472 179.6 8.54 179.532 8.596 179.46H7.32V179.112H8.784C8.808 179.032 8.828 178.952 8.844 178.864H9.212C9.196 178.952 9.18 179.036 9.16 179.112H9.848C9.808 179.048 9.768 178.988 9.728 178.932L10.04 178.816C10.096 178.9 10.144 179 10.192 179.112H10.684V179.46H9.368C9.696 179.764 10.188 179.976 10.844 180.096L10.636 180.432C9.916 180.264 9.368 179.956 9 179.508ZM7.748 176.936H8.628C8.668 176.852 8.696 176.768 8.72 176.684L9.128 176.736C9.104 176.808 9.076 176.872 9.04 176.936H10.284V178.772H7.748V176.936ZM9.916 178.448V178.244H8.112V178.448H9.916ZM8.112 177.956H9.916V177.752H8.112V177.956ZM8.112 177.464H9.916V177.26H8.112V177.464ZM12.78 180.368H12.192L12.1 179.972C12.292 179.988 12.468 180 12.636 180C12.788 180 12.868 179.92 12.868 179.764V176.78H13.264V179.864C13.264 180.2 13.1 180.368 12.78 180.368ZM11.792 177.708L12.172 177.86C11.988 178.648 11.744 179.252 11.444 179.668L11.112 179.376C11.416 178.96 11.644 178.404 11.792 177.708ZM14.2 177.608C14.488 178.312 14.712 178.924 14.868 179.452L14.524 179.688C14.356 179.132 14.132 178.512 13.852 177.824L14.2 177.608ZM15.24 178.396H16.892V177.884C17.208 177.7 17.512 177.484 17.804 177.228H15.66V176.872H18.316V177.228C18.012 177.528 17.664 177.812 17.272 178.076V178.396H18.76V178.768H17.272V179.992C17.272 180.252 17.14 180.384 16.88 180.384H16.18L16.076 180.016C16.276 180.024 16.496 180.028 16.728 180.028C16.836 180.028 16.892 179.976 16.892 179.872V178.768H15.24V178.396ZM19.504 176.744C19.752 176.944 19.96 177.14 20.128 177.34L19.856 177.616C19.708 177.428 19.5 177.224 19.232 177.008L19.504 176.744ZM19.404 177.72C19.672 177.92 19.9 178.116 20.084 178.316L19.812 178.588C19.652 178.4 19.428 178.2 19.132 177.984L19.404 177.72ZM19.808 178.796L20.14 178.924C19.968 179.436 19.776 179.92 19.56 180.372L19.204 180.216C19.436 179.752 19.64 179.28 19.808 178.796ZM20.156 177.74H22.808V178.092H22.036V178.44H22.708V179.976C22.708 180.236 22.584 180.368 22.34 180.368H22.016L21.924 180.036L22.232 180.052C22.32 180.052 22.368 180 22.368 179.9V178.768H22.036L22.024 178.952C22.124 179.084 22.228 179.232 22.332 179.392L22.164 179.644C22.092 179.476 22.028 179.34 21.976 179.232C21.904 179.552 21.764 179.848 21.556 180.12L21.308 179.904C21.568 179.568 21.704 179.192 21.716 178.768H21.268L21.256 178.892C21.356 179.012 21.456 179.144 21.56 179.288L21.388 179.54C21.316 179.392 21.256 179.268 21.204 179.168C21.136 179.432 21.024 179.676 20.864 179.9L20.632 179.696V180.392H20.292V178.44H20.964V178.092H20.156V177.74ZM20.956 178.768H20.632V179.66C20.82 179.392 20.928 179.096 20.956 178.768ZM21.276 178.44H21.72V178.092H21.276V178.44ZM20.252 177.016H20.816V176.732H21.188V177.016H21.776V176.732H22.144V177.016H22.748V177.376H22.144V177.612H21.776V177.376H21.188V177.616H20.816V177.376H20.252V177.016ZM24.296 178.18V178.808H25.916V178.18H24.296ZM25.916 177.824V177.224H24.296V177.824H25.916ZM24.276 179.16C24.224 179.672 24.072 180.096 23.82 180.436L23.528 180.168C23.78 179.816 23.908 179.368 23.916 178.824V176.86H26.3V179.992C26.3 180.248 26.168 180.376 25.912 180.376H25.4L25.296 180.004C25.472 180.012 25.636 180.02 25.788 180.02C25.872 180.02 25.916 179.964 25.916 179.86V179.16H24.276ZM28.872 178.048C29.26 177.824 29.628 177.572 29.976 177.292H27.416V176.924H30.5V177.292C30.132 177.624 29.716 177.94 29.252 178.24V179.96C29.252 180.24 29.112 180.38 28.836 180.38C28.592 180.38 28.38 180.372 28.2 180.356L28.096 179.988C28.292 180.012 28.504 180.024 28.732 180.024C28.824 180.024 28.872 179.976 28.872 179.888V178.048ZM31.768 179.428C31.872 179.428 31.956 179.468 32.028 179.552C32.092 179.64 32.128 179.748 32.128 179.884C32.128 180.088 32.068 180.264 31.948 180.416C31.828 180.568 31.668 180.672 31.468 180.728V180.48C31.576 180.44 31.668 180.38 31.74 180.292C31.804 180.2 31.84 180.108 31.84 180.012C31.816 180.02 31.784 180.024 31.744 180.024C31.66 180.024 31.592 179.996 31.536 179.94C31.48 179.884 31.452 179.812 31.452 179.728C31.452 179.636 31.48 179.564 31.54 179.508C31.596 179.452 31.672 179.428 31.768 179.428ZM36.052 177.408C35.992 177.5 35.932 177.588 35.872 177.672H38.404C38.396 178.012 38.384 178.312 38.376 178.576H38.86V178.932H38.364C38.352 179.156 38.344 179.348 38.336 179.504H38.748V179.856H38.312C38.3 179.952 38.292 180.012 38.284 180.04C38.248 180.168 38.18 180.26 38.08 180.316C37.98 180.376 37.832 180.408 37.64 180.408C37.496 180.408 37.328 180.412 37.14 180.412L37.028 180.064C37.236 180.072 37.42 180.08 37.584 180.08C37.664 180.08 37.736 180.068 37.796 180.052C37.856 180.028 37.9 179.976 37.932 179.896C37.932 179.888 37.936 179.872 37.94 179.856H35.628C35.684 179.544 35.732 179.236 35.768 178.932H35.148V178.576H35.804C35.832 178.28 35.848 177.984 35.856 177.692C35.72 177.872 35.576 178.032 35.424 178.172L35.18 177.876C35.5 177.588 35.772 177.192 36.004 176.684L36.388 176.772C36.344 176.868 36.3 176.956 36.256 177.044H38.664V177.408H36.052ZM36.704 178.948C37 179.044 37.272 179.156 37.52 179.292L37.38 179.504H37.968C37.976 179.352 37.984 179.16 37.992 178.932H36.148C36.124 179.136 36.1 179.328 36.068 179.504H37.232C37.004 179.372 36.772 179.268 36.536 179.196L36.704 178.948ZM36.18 178.576H37.216C37 178.456 36.78 178.36 36.564 178.284L36.732 178.036C37.028 178.132 37.296 178.248 37.544 178.388L37.42 178.576H38.004C38.012 178.404 38.016 178.22 38.024 178.024H36.212C36.204 178.216 36.192 178.4 36.18 178.576ZM39.304 178.104H40.724C40.768 177.852 40.8 177.576 40.816 177.276H39.408V176.912H42.592V177.276H41.2C41.18 177.58 41.148 177.856 41.108 178.104H42.708V178.468H41.288C41.568 179.184 42.084 179.736 42.84 180.124L42.604 180.432C41.824 180.008 41.288 179.408 40.992 178.636C40.928 178.86 40.856 179.048 40.768 179.2C40.5 179.676 40.044 180.088 39.404 180.436L39.164 180.124C39.748 179.82 40.164 179.464 40.412 179.048C40.504 178.892 40.58 178.7 40.644 178.468H39.304V178.104ZM44.444 177.016V177.784C44.684 177.524 44.892 177.164 45.064 176.708L45.42 176.788C45.364 176.936 45.308 177.076 45.244 177.212H46.728V177.58H45.048C44.936 177.764 44.816 177.932 44.688 178.08L44.444 177.792V180.004H44.084V179.784H43.66V180.1H43.288V177.016H44.444ZM43.66 179.428H44.084V177.376H43.66V179.428ZM44.828 178.108H46.412V178.44C46.064 178.768 45.8 179.036 45.62 179.24C45.448 179.432 45.332 179.576 45.268 179.672C45.204 179.768 45.176 179.836 45.176 179.884C45.176 179.964 45.228 180.004 45.332 180.004H46.164C46.252 180.004 46.32 179.972 46.364 179.908C46.404 179.844 46.436 179.64 46.456 179.288L46.812 179.416C46.776 179.86 46.708 180.128 46.608 180.216C46.512 180.304 46.364 180.348 46.164 180.352H45.244C44.924 180.352 44.764 180.22 44.764 179.956C44.764 179.868 44.8 179.772 44.872 179.668C44.936 179.556 45.072 179.38 45.276 179.132C45.44 178.932 45.644 178.708 45.884 178.464H44.828V178.108ZM48.872 178.048C49.26 177.824 49.628 177.572 49.976 177.292H47.416V176.924H50.5V177.292C50.132 177.624 49.716 177.94 49.252 178.24V179.96C49.252 180.24 49.112 180.38 48.836 180.38C48.592 180.38 48.38 180.372 48.2 180.356L48.096 179.988C48.292 180.012 48.504 180.024 48.732 180.024C48.824 180.024 48.872 179.976 48.872 179.888V178.048ZM52.82 177.868H52.528V177.516H53.484V177.24C53.224 177.26 52.948 177.272 52.656 177.272L52.548 176.952C53.348 176.952 54.02 176.876 54.568 176.724L54.74 177.024C54.48 177.104 54.18 177.168 53.84 177.208V177.516H54.784V177.868H54.508V178.38H54.784V178.688H54.508V179.188H54.784V179.532H53.84V179.92H54.676V180.276H52.656V179.92H53.484V179.532H52.552V179.188H52.82V178.688H52.532V178.38H52.82V177.868ZM54.172 177.868H53.84V178.38H54.172V177.868ZM53.484 177.868H53.156V178.38H53.484V177.868ZM54.172 178.688H53.84V179.188H54.172V178.688ZM53.484 178.688H53.156V179.188H53.484V178.688ZM52.36 176.888V180.148H52.008V179.972H51.644V180.244H51.288V176.888H52.36ZM51.644 179.632H52.008V179.072H51.644V179.632ZM51.644 178.736H52.008V178.16H51.644V178.736ZM51.644 177.828H52.008V177.232H51.644V177.828ZM55.768 179.428C55.872 179.428 55.956 179.468 56.028 179.552C56.092 179.64 56.128 179.748 56.128 179.884C56.128 180.088 56.068 180.264 55.948 180.416C55.828 180.568 55.668 180.672 55.468 180.728V180.48C55.576 180.44 55.668 180.38 55.74 180.292C55.804 180.2 55.84 180.108 55.84 180.012C55.816 180.02 55.784 180.024 55.744 180.024C55.66 180.024 55.592 179.996 55.536 179.94C55.48 179.884 55.452 179.812 55.452 179.728C55.452 179.636 55.48 179.564 55.54 179.508C55.596 179.452 55.672 179.428 55.768 179.428ZM60.82 177.868H60.528V177.516H61.484V177.24C61.224 177.26 60.948 177.272 60.656 177.272L60.548 176.952C61.348 176.952 62.02 176.876 62.568 176.724L62.74 177.024C62.48 177.104 62.18 177.168 61.84 177.208V177.516H62.784V177.868H62.508V178.38H62.784V178.688H62.508V179.188H62.784V179.532H61.84V179.92H62.676V180.276H60.656V179.92H61.484V179.532H60.552V179.188H60.82V178.688H60.532V178.38H60.82V177.868ZM62.172 177.868H61.84V178.38H62.172V177.868ZM61.484 177.868H61.156V178.38H61.484V177.868ZM62.172 178.688H61.84V179.188H62.172V178.688ZM61.484 178.688H61.156V179.188H61.484V178.688ZM60.36 176.888V180.148H60.008V179.972H59.644V180.244H59.288V176.888H60.36ZM59.644 179.632H60.008V179.072H59.644V179.632ZM59.644 178.736H60.008V178.16H59.644V178.736ZM59.644 177.828H60.008V177.232H59.644V177.828ZM64.872 178.048C65.26 177.824 65.628 177.572 65.976 177.292H63.416V176.924H66.5V177.292C66.132 177.624 65.716 177.94 65.252 178.24V179.96C65.252 180.24 65.112 180.38 64.836 180.38C64.592 180.38 64.38 180.372 64.2 180.356L64.096 179.988C64.292 180.012 64.504 180.024 64.732 180.024C64.824 180.024 64.872 179.976 64.872 179.888V178.048ZM68.444 177.016V177.784C68.684 177.524 68.892 177.164 69.064 176.708L69.42 176.788C69.364 176.936 69.308 177.076 69.244 177.212H70.728V177.58H69.048C68.936 177.764 68.816 177.932 68.688 178.08L68.444 177.792V180.004H68.084V179.784H67.66V180.1H67.288V177.016H68.444ZM67.66 179.428H68.084V177.376H67.66V179.428ZM68.828 178.108H70.412V178.44C70.064 178.768 69.8 179.036 69.62 179.24C69.448 179.432 69.332 179.576 69.268 179.672C69.204 179.768 69.176 179.836 69.176 179.884C69.176 179.964 69.228 180.004 69.332 180.004H70.164C70.252 180.004 70.32 179.972 70.364 179.908C70.404 179.844 70.436 179.64 70.456 179.288L70.812 179.416C70.776 179.86 70.708 180.128 70.608 180.216C70.512 180.304 70.364 180.348 70.164 180.352H69.244C68.924 180.352 68.764 180.22 68.764 179.956C68.764 179.868 68.8 179.772 68.872 179.668C68.936 179.556 69.072 179.38 69.276 179.132C69.44 178.932 69.644 178.708 69.884 178.464H68.828V178.108Z" fill="#1C1E22"/>
<g clip-path="url(#clip0_1303_1624)">
<path d="M8.99986 184C8.21203 184 7.57129 184.643 7.57129 185.433C7.57129 185.726 7.65924 186.008 7.82371 186.246C7.83191 186.26 7.84023 186.273 7.85005 186.287L8.89278 187.665C8.9211 187.697 8.95911 187.714 8.99986 187.714C9.04011 187.714 9.07837 187.697 9.11154 187.659L10.1494 186.287C10.1596 186.273 10.1684 186.258 10.1732 186.249C10.3397 186.01 10.4288 185.725 10.4284 185.433C10.4284 184.643 9.78756 184 8.99986 184ZM8.99986 185.945C8.86469 185.945 8.73506 185.891 8.6394 185.795C8.54373 185.699 8.48985 185.569 8.48955 185.433C8.49314 185.3 8.54848 185.173 8.64378 185.079C8.73907 184.986 8.86681 184.934 8.9998 184.934C9.13279 184.934 9.26052 184.986 9.35582 185.079C9.45112 185.173 9.50645 185.3 9.51005 185.433C9.50972 185.569 9.45583 185.699 9.3602 185.795C9.26457 185.891 9.13499 185.945 8.99986 185.945Z" fill="#1C1E22"/>
</g>
<path d="M12.381 184.588C12.588 184.738 12.765 184.885 12.909 185.035L12.702 185.236C12.576 185.098 12.402 184.948 12.177 184.786L12.381 184.588ZM12.327 185.323C12.519 185.467 12.684 185.608 12.816 185.752L12.612 185.956C12.498 185.818 12.333 185.674 12.123 185.518L12.327 185.323ZM12.594 186.139L12.855 186.241C12.729 186.619 12.591 186.973 12.438 187.306L12.15 187.18C12.321 186.841 12.468 186.493 12.594 186.139ZM12.948 184.705H14.874V184.981H14.655V186.979C14.655 187.192 14.553 187.3 14.352 187.3H13.851L13.791 187.027C13.953 187.039 14.106 187.045 14.253 187.045C14.331 187.045 14.373 186.997 14.373 186.907V184.981H12.948V184.705ZM13.068 185.371H14.052V186.529H13.068V185.371ZM13.788 186.271V185.626H13.332V186.271H13.788ZM15.156 184.792H16.383C16.395 184.702 16.407 184.609 16.416 184.516L16.707 184.555C16.698 184.639 16.689 184.717 16.677 184.792H17.844V185.059H16.632C16.614 185.146 16.596 185.23 16.578 185.311H17.697V186.961C17.697 187.177 17.595 187.288 17.397 187.288H17.112L17.037 187.012L17.304 187.018C17.379 187.018 17.418 186.976 17.418 186.898V185.578H15.588V187.306H15.309V185.311H16.287C16.305 185.227 16.323 185.143 16.338 185.059H15.156V184.792ZM16.2 185.632C16.26 185.734 16.314 185.851 16.365 185.986H16.638C16.698 185.869 16.752 185.746 16.8 185.62L17.058 185.716C17.013 185.812 16.965 185.902 16.911 185.986H17.205V186.235H16.638V186.487H17.286V186.736H16.638V187.261H16.362V186.736H15.717V186.487H16.362V186.235H15.804V185.986H16.092C16.05 185.893 16.002 185.806 15.945 185.725L16.2 185.632ZM18.75 185.692C18.813 185.692 18.867 185.713 18.909 185.761C18.954 185.803 18.978 185.854 18.978 185.92C18.978 185.98 18.954 186.034 18.909 186.079C18.867 186.124 18.813 186.148 18.75 186.148C18.684 186.148 18.633 186.124 18.591 186.079C18.543 186.034 18.522 185.98 18.522 185.92C18.522 185.854 18.543 185.803 18.591 185.761C18.633 185.713 18.684 185.692 18.75 185.692ZM22.02 186.157V187.3H21.747V187.186H20.958V187.3H20.685V186.157H22.02ZM20.958 186.928H21.747V186.415H20.958V186.928ZM21.015 184.513L21.288 184.567C21.264 184.639 21.234 184.708 21.204 184.777H22.053V184.984C21.945 185.215 21.789 185.422 21.582 185.605C21.813 185.743 22.083 185.851 22.392 185.926L22.227 186.166C21.885 186.076 21.597 185.947 21.357 185.782C21.117 185.947 20.829 186.088 20.493 186.208L20.319 185.977C20.64 185.872 20.913 185.749 21.138 185.605C21.03 185.506 20.937 185.398 20.856 185.284C20.76 185.383 20.655 185.473 20.544 185.557L20.373 185.335C20.691 185.11 20.904 184.837 21.015 184.513ZM21.018 185.089C21.111 185.221 21.225 185.341 21.357 185.449C21.513 185.32 21.642 185.179 21.738 185.029H21.06C21.042 185.053 21.03 185.071 21.018 185.089ZM19.89 184.585C20.097 184.735 20.274 184.882 20.418 185.032L20.211 185.236C20.088 185.095 19.914 184.945 19.686 184.783L19.89 184.585ZM19.836 185.32C20.028 185.464 20.193 185.605 20.325 185.749L20.121 185.956C20.007 185.818 19.842 185.674 19.632 185.518L19.836 185.32ZM20.1 186.139L20.358 186.241C20.235 186.619 20.097 186.973 19.947 187.303L19.662 187.177C19.83 186.841 19.977 186.493 20.1 186.139ZM22.734 184.645H23.757V184.864C23.661 185.122 23.55 185.395 23.421 185.683C23.619 185.956 23.724 186.196 23.742 186.4C23.742 186.538 23.709 186.64 23.649 186.7C23.556 186.778 23.394 186.817 23.166 186.82L23.076 186.535C23.136 186.544 23.187 186.55 23.226 186.55C23.319 186.544 23.382 186.532 23.415 186.511C23.445 186.487 23.46 186.451 23.46 186.4C23.46 186.199 23.352 185.974 23.139 185.725C23.28 185.425 23.391 185.152 23.472 184.906H23.007V187.318H22.734V184.645ZM25.272 184.684V187.3H24.996V187.075H24.159V187.294H23.883V184.684H25.272ZM24.159 186.802H24.996V186.007H24.159V186.802ZM24.159 185.743H24.996V184.96H24.159V185.743Z" fill="#1C1E22"/>
<defs>
<clipPath id="clip0_1303_1624">
<rect width="4" height="4" fill="white" transform="translate(7 184)"/>
</clipPath>
</defs>
</svg>
