<svg width="50" height="50" viewBox="0 0 50 50" fill="none" xmlns="http://www.w3.org/2000/svg">
<circle cx="25" cy="25" r="25" fill="#2C2C2E"/>
<g clip-path="url(#clip0_1281_1154)">
<path d="M25.2715 13.0038C27.8065 13.0965 30.2106 14.1542 31.9912 15.9608C33.7718 17.7675 34.7946 20.1865 34.8506 22.7226C34.882 24.9867 34.0482 26.7572 32.792 28.7187L32.752 28.7733L27.1445 35.9628C26.8891 36.286 26.5632 36.5469 26.1924 36.7265C25.8216 36.906 25.4149 36.9999 25.0029 36.9999C24.5909 36.9999 24.1843 36.906 23.8135 36.7265C23.4426 36.5469 23.1168 36.2861 22.8613 35.9628L17.2168 28.7274C15.8378 26.6318 15.1378 24.6562 15.1377 22.8603C15.1376 21.5424 15.4014 20.2374 15.9141 19.0233C16.4268 17.8093 17.1784 16.7108 18.123 15.7919C19.0676 14.8731 20.1864 14.1526 21.4141 13.6737C22.6419 13.1949 23.9541 12.9672 25.2715 13.0038ZM24.9951 18.3456C24.1023 18.3456 23.2287 18.6103 22.4863 19.1064C21.744 19.6024 21.1659 20.3079 20.8242 21.1327C20.4826 21.9575 20.3932 22.8655 20.5674 23.7411C20.7416 24.6165 21.1716 25.4205 21.8027 26.0517C22.4341 26.683 23.2386 27.1128 24.1143 27.287C24.9898 27.4611 25.897 27.3717 26.7217 27.0302C27.5465 26.6885 28.252 26.1104 28.748 25.3681C29.244 24.6258 29.5087 23.753 29.5088 22.8603C29.5073 21.6635 29.0308 20.5161 28.1846 19.6698C27.3384 18.8238 26.1917 18.3472 24.9951 18.3456ZM24.9951 20.2499C25.6868 20.2508 26.3497 20.5265 26.8389 21.0155C27.3281 21.5048 27.6037 22.1684 27.6045 22.8603C27.6044 23.3763 27.4508 23.8804 27.1641 24.3095C26.8773 24.7386 26.47 25.0739 25.9932 25.2714C25.5164 25.4688 24.9915 25.5205 24.4854 25.4198C23.9792 25.3191 23.5144 25.0699 23.1494 24.705C22.7845 24.34 22.5362 23.8752 22.4355 23.369C22.3349 22.8628 22.3865 22.3381 22.584 21.8612C22.7815 21.3845 23.1158 20.9771 23.5449 20.6903C23.9741 20.4036 24.479 20.2499 24.9951 20.2499Z" fill="#005EFF"/>
</g>
<defs>
<clipPath id="clip0_1281_1154">
<rect width="24" height="24" fill="white" transform="translate(13 13)"/>
</clipPath>
</defs>
</svg>
