<svg width="26" height="26" viewBox="0 0 26 26" fill="none" xmlns="http://www.w3.org/2000/svg">
<path d="M23 13C23 18.5228 18.5228 23 13 23C7.47715 23 3 18.5228 3 13C3 7.47715 7.47715 3 13 3" stroke="black" stroke-width="1.8" stroke-linecap="round"/>
<path d="M17 3H22C22.5523 3 23 3.44772 23 4V9" stroke="black" stroke-width="1.8" stroke-linecap="round"/>
<path d="M12.3636 12.3636C12.0121 12.7151 12.0121 13.2849 12.3636 13.6364C12.7151 13.9879 13.2849 13.9879 13.6364 13.6364L12.3636 12.3636ZM23 3L22.3636 2.3636L12.3636 12.3636L13 13L13.6364 13.6364L23.6364 3.6364L23 3Z" fill="black"/>
</svg>
